<svg xmlns="http://www.w3.org/2000/svg" width="400" height="283" viewBox="0 0 388.516 275.008"><defs><style>.a{fill:#a6a6a6;}.b{fill:#dbdbdb;}.c{fill:#ebebeb;}.d,.l{fill:#0b032d;}.e{fill:#f1b204;}.f{fill:#fcbf17;}.g,.n{fill:#eb9481;}.h{fill:#19354b;}.i{fill:#244764;}.j{fill:#3f88c5;}.k{fill:#fff;}.l,.p{opacity:0.3;}.m{opacity:0.2;}.n{stroke:#0b032d;stroke-width:0.75px;}.o{fill:#263238;}</style></defs><g transform="translate(-23.95 -95.26)"><g transform="translate(23.95 95.26)"><path class="a" d="M97.4,299.19C85.647,310.7,83.653,328.5,86.145,344.1c.069.352.619.258.619-.077,0-3.549-.112-7.064-.1-10.57.069-.163.12-.318.189-.473,3.068-2.234,5.912-4.744,7.631-8.181,1.968-3.867,2.741-8.215,4.237-12.254.146-.387-.266-.275-.541-.069C91.026,317.744,88.723,323.424,86.7,331A62.622,62.622,0,0,1,87.941,319.2c1.547-7.193,4.6-14.334,9.771-19.671a.228.228,0,0,0-.309-.335Z" transform="translate(-32.564 -123.932)"/><path class="b" d="M101.342,299.019c2.019.069,3.291,3.3,4.864,4.245a1.521,1.521,0,0,0,2.234-.352c1.564-2.183-.584-4.873-2.578-6.376,1.444.593,2.638,1.633,4.194,1.934a1.47,1.47,0,0,0,1.891-1.134c.679-2.973-3.042-4.3-5.6-4.357,1.237-.859,4.8-3.205,2.9-4.357s-6.084,2.191-7.442,3.291c-2,1.624-4.383,4.048-4.477,6.583C97.174,301.46,99.761,299.638,101.342,299.019Z" transform="translate(-34.269 -122.421)"/><path class="c" d="M100.7,299.963c2.578-1.177,7.554.516,7.975-.464.859-1.994-3.111-3.36-5.259-3.626,1.977-.533,5.758-1.384,5.646-3.283-.146-2.329-5.8-.327-8.671,1.865-3.6,2.767-3.584,5.44-2.982,5.973C98.227,301.157,100.272,300.152,100.7,299.963Z" transform="translate(-34.239 -122.866)"/><path class="a" d="M68.1,297.86c12.186,11.051,14.841,28.771,12.951,44.455,0,.352-.6.284-.61-.052-.137-3.549-.163-7.073-.309-10.57l-.2-.473c-3.145-2.105-6.067-4.52-7.94-7.906-2.114-3.781-3.051-8.1-4.7-12.083-.155-.378.258-.284.533-.095,7.348,5,9.848,10.587,12.186,18.089a63.267,63.267,0,0,0-1.719-11.756c-1.822-7.133-5.156-14.145-10.519-19.284C67.6,297.971,67.9,297.662,68.1,297.86Z" transform="translate(-30.041 -123.745)"/><path class="b" d="M63.971,297.828c-2.019.146-3.162,3.437-4.7,4.426a1.512,1.512,0,0,1-2.243-.266c-1.641-2.123.4-4.89,2.355-6.471-1.418.653-2.578,1.719-4.116,2.088a1.461,1.461,0,0,1-1.934-1.091c-.8-2.948,2.879-4.409,5.431-4.572-1.272-.808-4.916-3.016-3.068-4.237s6.162,1.959,7.562,3.008c2.062,1.547,4.537,3.876,4.718,6.411C68.207,300.114,65.552,298.387,63.971,297.828Z" transform="translate(-28.067 -122.287)"/><path class="c" d="M65.025,298.747c-2.621-1.074-7.528.808-7.983-.155-.928-1.959,2.982-3.437,5.156-3.824-1.994-.455-5.8-1.169-5.758-3.068.052-2.329,5.783-.55,8.731,1.538,3.7,2.63,3.781,5.294,3.205,5.852C67.551,299.855,65.463,298.927,65.025,298.747Z" transform="translate(-28.519 -122.733)"/><path class="a" d="M80.957,325.07a119.959,119.959,0,0,0,3.79,17.479.438.438,0,1,0,.859-.172c-.8-5.38-2.26-10.673-3.059-16.053a80.308,80.308,0,0,1-.937-16.491C82.117,300.758,84.583,291.1,90.5,284c.138-.172-.146-.4-.275-.249-11.859,13.827-9.969,30.774-9.96,32.295-1.719-5.723-3.437-12.289-9.762-18.115-.275-.249-.49-.129-.438.3,1.126,10.647,4.073,16.156,10.252,21.819C80.476,321.77,80.69,323.42,80.957,325.07Z" transform="translate(-30.435 -121.762)"/><path class="b" d="M93.2,283.474c2.131-.945,5.079,1.77,7.184,1.951a1.719,1.719,0,0,0,2.14-1.487c.524-3.051-3.051-4.761-5.9-5.3,1.8-.112,3.558.361,5.319-.112a1.719,1.719,0,0,0,1.392-2.131c-.782-3.437-5.319-2.922-8-1.719.859-1.521,3.36-5.741.859-6.016s-5.208,5.337-6.058,7.167c-1.263,2.69-2.518,6.411-1.332,9.083C90.108,288.1,91.87,284.9,93.2,283.474Z" transform="translate(-33.004 -119.645)"/><path class="c" d="M92.832,284.8c2.1-2.518,8.1-3.266,8.044-4.494-.112-2.492-4.916-1.916-7.27-1.109,1.77-1.547,5.268-4.34,4.194-6.256-1.323-2.337-6.187,2.578-8.052,6.308-2.346,4.684-.98,7.442-.095,7.691C90.873,287.292,92.488,285.221,92.832,284.8Z" transform="translate(-33.021 -120.164)"/><path class="b" d="M72.8,335.553l-5.225,39.96h31.8c-.653-3.541-6.574-40-6.574-40Z" transform="translate(-30.086 -129.049)"/><rect class="c" width="22.756" height="9.616" transform="translate(375.824 89.691) rotate(180)"/><rect class="c" width="22.756" height="9.616" transform="translate(388.516 77.566) rotate(180)"/><rect class="c" width="22.756" height="9.616" transform="translate(363.122 77.566) rotate(180)"/><rect class="c" width="22.756" height="9.616" transform="translate(35.449 213.714) rotate(180)"/><rect class="c" width="22.756" height="9.616" transform="translate(22.756 201.589) rotate(180)"/><rect class="c" width="22.756" height="9.616" transform="translate(388.516 213.706) rotate(180)"/><rect class="c" width="22.756" height="9.616" transform="translate(76.036)"/><rect class="c" width="22.756" height="9.616" transform="translate(63.335 12.126)"/></g><g transform="translate(53.168 341.26)"><path class="d" d="M57.95,381.95l41.258-.206,41.258-.077,82.524-.146,82.516.146,41.266.077,41.258.206-41.258.215-41.266.069-82.516.146-82.524-.146-41.258-.077Z" transform="translate(-57.95 -381.52)"/></g><g transform="translate(-474.735 -86.732)"><path class="e" d="M32.224-95.912Q36.936-79.192,47.2-72.048A40.591,40.591,0,0,0,70.984-64.9q11.7,0,25.536-5.016l5.472,25.08a64.3,64.3,0,0,1-25.84,5.776A44.235,44.235,0,0,1,55.024-44,39.927,39.927,0,0,1,40.432-56.772,32.793,32.793,0,0,1,34.5-72.96a38.149,38.149,0,0,1,4.028-19.532A39,39,0,0,1,51.6-107.616a31.772,31.772,0,0,1,18.316-5.776q14.744,0,30.248,12.616l-8.968,19a61.088,61.088,0,0,0-18.392-3.192q-8.36,0-13.832,2.964t-5.168,7.98q.3,3.192,5.852,5.852t14.212,2.66A65.838,65.838,0,0,0,96.52-69.92l5.472,25.08a80.443,80.443,0,0,1-31.92,6.992,54.34,54.34,0,0,1-32.224-10.26Q23.408-58.368,15.2-82.384ZM19.76,0q.3-10.032.3-14.592A295.166,295.166,0,0,0,17.328-57q-3.5-25.992-11.248-43.624l19.456-12.16Q36.024-91.96,39.064-60.648a364.239,364.239,0,0,1,1.824,37.7q0,11.1-.456,22.952ZM143.336-2.888a26.563,26.563,0,0,1-13.908-3.876A29.691,29.691,0,0,1,119.092-17.1a26.833,26.833,0,0,1-3.876-14.06,26.833,26.833,0,0,1,3.876-14.06,29.062,29.062,0,0,1,10.336-10.26,26.964,26.964,0,0,1,13.908-3.8,27.644,27.644,0,0,1,14.136,3.8A29.073,29.073,0,0,1,167.884-45.3,26.713,26.713,0,0,1,171.76-31.16a26.833,26.833,0,0,1-3.876,14.06A29.489,29.489,0,0,1,157.472-6.764,27.229,27.229,0,0,1,143.336-2.888Zm0-19.608a7.908,7.908,0,0,0,5.852-2.584,8.444,8.444,0,0,0,2.508-6.08,8.192,8.192,0,0,0-2.508-6,8.02,8.02,0,0,0-5.852-2.508,7.751,7.751,0,0,0-5.7,2.584,8.272,8.272,0,0,0-2.508,5.928,8.529,8.529,0,0,0,2.508,6A7.654,7.654,0,0,0,143.336-22.5ZM215.08-95.912q4.712,16.72,14.972,23.864A40.591,40.591,0,0,0,253.84-64.9q11.7,0,25.536-5.016l5.472,25.08a64.3,64.3,0,0,1-25.84,5.776A44.235,44.235,0,0,1,237.88-44a39.927,39.927,0,0,1-14.592-12.768A32.793,32.793,0,0,1,217.36-72.96a38.149,38.149,0,0,1,4.028-19.532,39,39,0,0,1,13.072-15.124,31.772,31.772,0,0,1,18.316-5.776q14.744,0,30.248,12.616l-8.968,19a61.088,61.088,0,0,0-18.392-3.192q-8.36,0-13.832,2.964t-5.168,7.98q.3,3.192,5.852,5.852t14.212,2.66a65.837,65.837,0,0,0,22.648-4.408l5.472,25.08a80.443,80.443,0,0,1-31.92,6.992A54.34,54.34,0,0,1,220.7-48.108q-14.44-10.26-22.648-34.276ZM202.616,0q.3-10.032.3-14.592A295.167,295.167,0,0,0,200.184-57q-3.5-25.992-11.248-43.624l19.456-12.16Q218.88-91.96,221.92-60.648a364.239,364.239,0,0,1,1.824,37.7q0,11.1-.456,22.952Z" transform="translate(542.685 317)"/><path class="f" d="M32.224-95.912Q36.936-79.192,47.2-72.048A40.591,40.591,0,0,0,70.984-64.9q11.7,0,25.536-5.016l5.472,25.08a64.3,64.3,0,0,1-25.84,5.776A44.235,44.235,0,0,1,55.024-44,39.927,39.927,0,0,1,40.432-56.772,32.793,32.793,0,0,1,34.5-72.96a38.149,38.149,0,0,1,4.028-19.532A39,39,0,0,1,51.6-107.616a31.772,31.772,0,0,1,18.316-5.776q14.744,0,30.248,12.616l-8.968,19a61.088,61.088,0,0,0-18.392-3.192q-8.36,0-13.832,2.964t-5.168,7.98q.3,3.192,5.852,5.852t14.212,2.66A65.838,65.838,0,0,0,96.52-69.92l5.472,25.08a80.443,80.443,0,0,1-31.92,6.992,54.34,54.34,0,0,1-32.224-10.26Q23.408-58.368,15.2-82.384ZM19.76,0q.3-10.032.3-14.592A295.166,295.166,0,0,0,17.328-57q-3.5-25.992-11.248-43.624l19.456-12.16Q36.024-91.96,39.064-60.648a364.239,364.239,0,0,1,1.824,37.7q0,11.1-.456,22.952ZM143.336-2.888a26.563,26.563,0,0,1-13.908-3.876A29.691,29.691,0,0,1,119.092-17.1a26.833,26.833,0,0,1-3.876-14.06,26.833,26.833,0,0,1,3.876-14.06,29.062,29.062,0,0,1,10.336-10.26,26.964,26.964,0,0,1,13.908-3.8,27.644,27.644,0,0,1,14.136,3.8A29.073,29.073,0,0,1,167.884-45.3,26.713,26.713,0,0,1,171.76-31.16a26.833,26.833,0,0,1-3.876,14.06A29.489,29.489,0,0,1,157.472-6.764,27.229,27.229,0,0,1,143.336-2.888Zm0-19.608a7.908,7.908,0,0,0,5.852-2.584,8.444,8.444,0,0,0,2.508-6.08,8.192,8.192,0,0,0-2.508-6,8.02,8.02,0,0,0-5.852-2.508,7.751,7.751,0,0,0-5.7,2.584,8.272,8.272,0,0,0-2.508,5.928,8.529,8.529,0,0,0,2.508,6A7.654,7.654,0,0,0,143.336-22.5ZM215.08-95.912q4.712,16.72,14.972,23.864A40.591,40.591,0,0,0,253.84-64.9q11.7,0,25.536-5.016l5.472,25.08a64.3,64.3,0,0,1-25.84,5.776A44.235,44.235,0,0,1,237.88-44a39.927,39.927,0,0,1-14.592-12.768A32.793,32.793,0,0,1,217.36-72.96a38.149,38.149,0,0,1,4.028-19.532,39,39,0,0,1,13.072-15.124,31.772,31.772,0,0,1,18.316-5.776q14.744,0,30.248,12.616l-8.968,19a61.088,61.088,0,0,0-18.392-3.192q-8.36,0-13.832,2.964t-5.168,7.98q.3,3.192,5.852,5.852t14.212,2.66a65.837,65.837,0,0,0,22.648-4.408l5.472,25.08a80.443,80.443,0,0,1-31.92,6.992A54.34,54.34,0,0,1,220.7-48.108q-14.44-10.26-22.648-34.276ZM202.616,0q.3-10.032.3-14.592A295.167,295.167,0,0,0,200.184-57q-3.5-25.992-11.248-43.624l19.456-12.16Q218.88-91.96,221.92-60.648a364.239,364.239,0,0,1,1.824,37.7q0,11.1-.456,22.952Z" transform="translate(550.685 310)"/></g><g transform="translate(164.07 136.696)"><path class="g" d="M239.974,351.79s41.481,11.172,48.339,9.969,30.009-32.363,35.148-43.664,13.672-67.52,12.031-73.707-10.226-6.273-17.471,9.676-24.371,51.012-27.422,53.9S236.631,348.8,239.974,351.79Z" transform="translate(-194.43 -157.125)"/><path class="g" d="M281.835,374.934c-6.359-3.326-14.1-11.4-19.379-12.237a6.127,6.127,0,0,0-6.591,3.145s-2.423-5.388-7.339-5.362c-2.518,0-4.718,4.056-4.718,4.056s-2.14-4.237-6.5-3.944c-3.48.232-5.156,4.254-5.156,4.254s-3.936-3.111-7.408-1.719c-7.03,2.776-8.2,32.656,2.63,37.709,5.044,2.355,4.933-4.958,4.933-4.958s2.7,10.484,8.851,10.879,5.44-9.092,5.44-9.092,2.707,10.132,9.126,9.9c6.686-.232,4.348-9.608,4.348-9.608s4.245,6.823,9.118,5.517c8.052-2.148-.6-18.322,1.22-24.827h10.115Z" transform="translate(-191.552 -173.996)"/><path class="g" d="M281.012,369.024c6.3,2.63,13.483-7.313,19.963-5,8.4,3,.636,13.372-12.1,15.056H278.76Z" transform="translate(-199.907 -174.445)"/><path class="d" d="M233.461,366.237a.077.077,0,0,0-.155,0c-2.776,9.737-2.853,21.286.627,30.86.112.309.679.266.619-.1C232.851,386.407,232.181,376.9,233.461,366.237Z" transform="translate(-193.228 -174.795)"/><path class="d" d="M247.414,364.984a.108.108,0,0,0-.215,0c-2.81,10.055-2.578,23.057,2.776,33.627.18.361.713.5.533.069C247.508,391.392,246.211,374.6,247.414,364.984Z" transform="translate(-195.218 -174.616)"/><path class="d" d="M266.389,399.51c-4.7-10.312-5.62-21.114-4.967-32.338,0-.146-.2-.146-.241,0-1.813,5.405-1.478,12.6-.748,18.175a29.82,29.82,0,0,0,5.56,14.317C266.149,399.845,266.492,399.733,266.389,399.51Z" transform="translate(-197.247 -174.922)"/><path class="d" d="M296.78,362.722c-4.125-1.375-8.362,1.925-11.833,3.773a20.622,20.622,0,0,1-3.5,1.659,7.129,7.129,0,0,1-6.016-.455c-1.925-1.229-7.932-7.227-12.272-5.233a9.247,9.247,0,0,0-3.712,3.154c-1.323-2.406-3.016-5.027-5.947-5.509a4.641,4.641,0,0,0-3.678.954,7.546,7.546,0,0,0-1.444,1.47,6.813,6.813,0,0,0-1,1.641.553.553,0,0,1,0-.06l-.095-.18-.18-.37a3.859,3.859,0,0,0-1.023-1.28.859.859,0,0,0-.627-.258.069.069,0,0,0,0,.138,1,1,0,0,1,.464.455c.137.206.266.421.412.619s.284.4.43.6l.215.318.095.163a1.109,1.109,0,0,0,.138.146.129.129,0,0,0,.206,0h0a8.594,8.594,0,0,0,1.195-1.306,10.314,10.314,0,0,1,1.435-1.375,4.46,4.46,0,0,1,3.532-.859c2.63.516,4.3,2.853,5.7,4.941h.043c-.043.069.052.129.1.077,1.444-1.263,2.819-2.681,4.812-2.973,2.148-.318,4.185.713,5.964,1.8a27.5,27.5,0,0,1,2.578,1.719c.73.567,1.427,1.2,2.209,1.719,3.343,2.105,7,.473,7.915.086a45.848,45.848,0,0,0,5.216-2.767,14.711,14.711,0,0,1,5.586-2.26,5.491,5.491,0,0,1,4.967,1.856c.627.808,1.427,2.32-.215,5.766,0,0,0,.069.052.043C299.366,370.035,302.1,364.5,296.78,362.722Z" transform="translate(-195.214 -173.935)"/><path class="h" d="M340.954,296.249l-39.144-6.256s18.7-37.03,29.931-47.772c11.086-10.6,16.483.258,14.85,16.637C344.787,277.016,340.954,296.249,340.954,296.249Z" transform="translate(-203.149 -156.772)"/><path class="i" d="M340.341,296.519c-1.1-.258-2.226-.421-3.326-.67s-2.157-.4-3.24-.567c-2.209-.344-4.426-.653-6.634-.954-4.366-.6-8.731-1.263-13.114-1.719-2.492-.275-4.967-.653-7.468-.859-.077,0-.086.12,0,.138,4.34,1.014,8.757,1.719,13.157,2.484s8.731,1.384,13.114,1.856c1.229.138,2.466.292,3.7.352s2.535.18,3.8.2a.129.129,0,1,0,.017-.258Z" transform="translate(-203.808 -164.33)"/><path class="j" d="M320.676,361.4H424.341s-43.088-106.939-64.993-122.562c-6.574-4.692-19.635-5.263-26.7,4.155-5.792,7.734-9.03,69.506-9.03,69.506Z" transform="translate(-204.665 -156.428)"/><path class="k" d="M357.81,238.2c.258-.069.524-.1.782-.155a1.547,1.547,0,0,1,1.891,1.512,1.212,1.212,0,0,0,.559,1.048,1.469,1.469,0,0,0,.645.223c.258.052.524.077.782.155-.258.069-.524.1-.782.155a1.521,1.521,0,0,1-.859-.077,1.616,1.616,0,0,1-.98-1.487,1.194,1.194,0,0,0-.593-1.023,1.582,1.582,0,0,0-.653-.2C358.334,238.3,358.068,238.267,357.81,238.2Z" transform="translate(-211.025 -156.772)"/><path class="k" d="M366.6,257.079c-.129.232-.292.438-.438.662a1.581,1.581,0,0,1-.653.567,1.6,1.6,0,0,1-1.762-.3,1.229,1.229,0,0,0-1.134-.352,1.5,1.5,0,0,0-.61.3c-.223.146-.43.309-.662.447.129-.241.292-.447.438-.67a1.5,1.5,0,0,1,.679-.55,1.6,1.6,0,0,1,1.719.361,1.237,1.237,0,0,0,1.169.327,1.608,1.608,0,0,0,.6-.327C366.2,257.371,366.367,257.208,366.6,257.079Z" transform="translate(-211.521 -159.453)"/><path class="k" d="M345.419,242.119c-.129.232-.292.438-.438.662a1.65,1.65,0,0,1-.653.576,1.6,1.6,0,0,1-1.762-.309,1.2,1.2,0,0,0-1.134-.344,1.4,1.4,0,0,0-.61.3c-.223.146-.43.309-.662.438.129-.232.292-.438.438-.662a1.521,1.521,0,0,1,.679-.559,1.6,1.6,0,0,1,1.719.361,1.2,1.2,0,0,0,1.143.3,1.5,1.5,0,0,0,.6-.327C344.981,242.411,345.179,242.248,345.419,242.119Z" transform="translate(-208.542 -157.349)"/><path class="k" d="M348.263,252.43c.069.258.1.516.155.782a1.573,1.573,0,0,1-.06.859A1.6,1.6,0,0,1,346.9,255.1a1.22,1.22,0,0,0-1.048.559,1.469,1.469,0,0,0-.215.645c-.052.258-.086.516-.155.782-.077-.266-.1-.524-.163-.782a1.564,1.564,0,0,1,.086-.859,1.624,1.624,0,0,1,1.487-.971,1.2,1.2,0,0,0,1.014-.593,1.367,1.367,0,0,0,.2-.653C348.16,252.92,348.186,252.688,348.263,252.43Z" transform="translate(-209.264 -158.8)"/><rect class="c" width="12.813" height="39.668" transform="matrix(0.974, -0.226, 0.226, 0.974, 59.826, 106.882)"/><g transform="translate(125.232 59.984)"><path class="g" d="M397.107,170.8c4.643.356,14.393-7.924,18.339-15.028.263-.48-.449-5.649-1.021-11.948-.34-3.838-.619-8.11-.588-12.025l-24.607,5.8a63.032,63.032,0,0,1,2.275,15.059,8.818,8.818,0,0,1-.186,1.548v.263C390.762,157.568,389.942,170.228,397.107,170.8Z" transform="translate(-389.23 -131.8)"/><path class="l" d="M391.289,150.817a17.044,17.044,0,0,0,2.523.13c13.635-.182,17.5-14.041,18.463-18.917l-20.986,4.07c1.366,4.124-.442,7.079-.3,11.357A6.981,6.981,0,0,0,391.289,150.817Z" transform="translate(-389.23 -123.674)"/></g><g transform="translate(101.751 -6.972) rotate(20)"><g transform="translate(23.372 5.669)"><path class="g" d="M39.27,8.426c6.013,8.065,10.523,35.921,6.179,44.047-6.329,11.786-21.339,18.04-32.539,9.4C2.056,53.487-3.228,17.085,2.086,9.215,9.88-2.353,30.408-3.488,39.27,8.426Z" transform="translate(1.109 1.11)"/><path class="d" d="M22.272,1.109c6.925,0,13.857,2.712,18.107,8.426C46.392,17.6,50.9,45.457,46.558,53.582c-6.329,11.786-21.339,18.04-32.539,9.4C3.165,54.6-2.119,18.194,3.2,10.324,7.251,4.3,14.758,1.11,22.272,1.109m0-1.11V0A26.892,26.892,0,0,0,10.967,2.454,21.21,21.21,0,0,0,2.275,9.7c-1.759,2.6-2.2,7.4-2.266,10.969A84.9,84.9,0,0,0,1.452,36.658,81.177,81.177,0,0,0,5.975,52.747c2.169,5.276,4.647,9.016,7.365,11.116a20,20,0,0,0,12.293,4.255,23.281,23.281,0,0,0,12.6-3.9,27.625,27.625,0,0,0,9.306-10.114c1.119-2.094,1.74-5.348,1.845-9.674a78.308,78.308,0,0,0-.93-13.06,89.1,89.1,0,0,0-2.9-13.024,32.939,32.939,0,0,0-4.283-9.477,21.1,21.1,0,0,0-8.488-6.706A26.028,26.028,0,0,0,22.274,0Z" transform="translate(0 0)"/></g><g transform="translate(16.528 1.077)"><path class="d" d="M3.088,0A28.831,28.831,0,0,0,.08,15.379C.742,24.451,3.248,32.772,3.7,32.96S3.088,0,3.088,0Z" transform="translate(3.201 21.047) rotate(-8)"/><path class="d" d="M51.856,40.292c-3.127,1.5-8.388-7.78-10.027-11.41-1.451-3.195-4.134-13.62-4.4-14.319S24.556,26.1,15.934,24.936.668,17.2.029,13.759,9.35,2.079,18.167.282s21.5,5.569,21.5,5.569S34.846,1.6,34.921,1.176s6.164,1,7.832,4.923c0,0-2.185-.732-1.779-.9s5.815-.666,5.311,2.814c0,0,5.833,3.683,7.051,8.509S55.524,38.526,51.856,40.292Z" transform="translate(1.043 0)"/><path class="d" d="M.035,13.317c2.691.752,5.4,1.669,8.268,1.609a18.993,18.993,0,0,0,8.682-2.774A28.322,28.322,0,0,0,24.1,6.342C25.907,4.328,27.425,2.005,29.4.149c.489-.458,1.255.241.992.8a30.024,30.024,0,0,1-13.312,13.3C11.362,17.068,5.507,16.58.05,13.393-.018,13.37-.01,13.31.035,13.317Z" transform="translate(10.809 10.784)"/><path class="d" d="M6.715,0S-1.275,4.956.176,12.085,7.069,25.748,8.038,25.9,6.715,0,6.715,0Z" transform="translate(0 12.08)"/><path class="d" d="M0,.271.421.511C6.028,3.653,12,4.2,17.859,1.624c-.428-.556-.872-1.1-1.323-1.624A18.326,18.326,0,0,1,9.08,1.962,29.075,29.075,0,0,1,.413.308h0L.03.2C0,.18,0,.248,0,.271Z" transform="translate(6.559 21.772)"/></g><g transform="translate(0 0)"><path class="j" d="M0,16.347c3.584-.613,23.261,1.34,31.833,5.763S55.256,40.351,56.047,41.078,63.1,9.6,37.192,1.867C8.927-6.575,0,16.347,0,16.347Z" transform="translate(17.822 0)"/><path class="j" d="M72.417,37.614S56.6,13.4,47.3,7.54,16.531-2.84,2.729,2.132c-10.767,3.874,13.8,19.081,13.8,19.081a9.685,9.685,0,0,1,5.1-5.02c6.715-2.131,18.257.969,25.15,3.826C55.483,23.618,72.417,37.614,72.417,37.614Z" transform="translate(0 2.027)"/><g class="m" transform="translate(0 2.027)"><path d="M72.417,37.614S56.6,13.4,47.3,7.54,16.531-2.84,2.729,2.132c-10.767,3.874,13.8,19.081,13.8,19.081a9.685,9.685,0,0,1,5.1-5.02c6.715-2.131,18.257.969,25.15,3.826C55.483,23.618,72.417,37.614,72.417,37.614Z" transform="translate(0 0)"/></g></g><g transform="translate(64.654 30.203)"><path class="n" d="M0,9.723S3.112-.8,7.689.049s4.224,14.665.248,17.874a4.871,4.871,0,0,1-7.02-.413Z" transform="translate(1.157 0)"/><path class="d" d="M4.6,0a.068.068,0,0,1,.068.113C1.917,2.468,1.225,5.979,1.075,9.429c.549-1.5,1.624-2.571,3.578-1.969.105,0,.068.188,0,.2a3.007,3.007,0,0,0-2.8,2.037A14.207,14.207,0,0,0,1.21,12.7c-.06.331-.624.353-.624,0v-.075C-.879,8.6.383,1.867,4.6,0Z" transform="translate(4.044 4.007)"/><path class="g" d="M7.308,8.838l-.523,3.6L.7,11.068,0,0,3.132.909l.533,6.506L4.692,9.089Z" transform="translate(0 8.923)"/></g><g transform="translate(28.569 35.325)"><path class="d" d="M.746,4.645A9.527,9.527,0,0,0,4.51,3.02,7.842,7.842,0,0,0,7.1.182L7.142.108A.072.072,0,0,0,7.055,0l-.009,0c-1.09.566-2.24,1.024-3.31,1.642-1.045.668-2.328.9-3.381,1.5A.812.812,0,0,0,.746,4.645Z" transform="translate(13.032 26.142) rotate(171)"/><path class="d" d="M8.758,3.707a.9.9,0,0,0-.476-.966c-.706-.258-1.349-.4-2.057-.6L5.3,1.877A28.575,28.575,0,0,1,.185,0L.136.022c-1.135.735,5.136,3.8,7.3,4.289C7.835,4.4,8.684,4.185,8.758,3.707Z" transform="translate(24.35 24.082) rotate(171)"/><path class="d" d="M2.873,1.855c.952.133,1.975.676,2.884.235A.959.959,0,0,0,6.1.787a1.843,1.843,0,0,0-1.6-.755,8.173,8.173,0,0,0-1.6.016L2.753.064A4.982,4.982,0,0,0,.079,1.1a.276.276,0,0,0,.12.457C1.073,1.74,1.988,1.731,2.873,1.855Z" transform="matrix(-0.966, 0.259, -0.259, -0.966, 19.205, 26.758)"/><path class="d" d="M0,1.533c0,.008.011.008.012,0A3.163,3.163,0,0,1,.47.009.006.006,0,0,0,.46,0,3.186,3.186,0,0,0,0,1.533Z" transform="matrix(-0.966, 0.259, -0.259, -0.966, 16.858, 24.769)"/><path class="d" d="M3.636,5.307c.951-.582,2.4-1.939,1.377-3.381-1.2-1.272-2.937.186-3.791.846-.792.511-1.682-.8-.947-1.4,6.172-4.6,8.677,3.784,3.843,4.62C3.584,6.083,3.387,5.487,3.636,5.307Z" transform="matrix(-0.966, 0.259, -0.259, -0.966, 15.523, 17.332)"/><path class="d" d="M1.584,5.365a1.066,1.066,0,0,0,.631-.217,1.874,1.874,0,0,0,.509-.595,3.845,3.845,0,0,0,.444-1.87A3.845,3.845,0,0,0,2.724.812,1.874,1.874,0,0,0,2.215.217,1.066,1.066,0,0,0,1.584,0,1.066,1.066,0,0,0,.953.217,1.874,1.874,0,0,0,.444.812,3.845,3.845,0,0,0,0,2.683a3.845,3.845,0,0,0,.444,1.87,1.874,1.874,0,0,0,.509.595A1.066,1.066,0,0,0,1.584,5.365Z" transform="matrix(-0.966, 0.259, -0.259, -0.966, 7.17, 12.888)"/><path class="d" d="M9.738,4.6l.084.016a1.193,1.193,0,0,0,1.165-.277.73.73,0,0,0,0-1.017c-.4-.464-.789-.381-1.335-.4H9.614Q8.931,2.9,8.247,2.885c-.125,0-.249,0-.374,0A3.384,3.384,0,0,0,6.345.165C5.779-.27,5.063.232,4.861.773a2.948,2.948,0,0,0-.116,1.489,1.6,1.6,0,0,0,.2.544l.029.045,0,.064c0,.016,0,.031,0,.047-.813.05-1.621.132-2.429.235l-.269.035A4.828,4.828,0,0,0,.01,3.805a.036.036,0,0,0,.007.056,2.079,2.079,0,0,0,.961.172l.049,0q.56.029,1.118.048L2.52,4.1c.955.028,1.91.074,2.864.125.166.009.332.019.5.03a1.58,1.58,0,0,0,.541.125,1.231,1.231,0,0,0,.433-.058q.523.041,1.044.088l.348.032C8.738,4.486,9.254,4.507,9.738,4.6Z" transform="matrix(-0.966, 0.259, -0.259, -0.966, 25.029, 8.085)"/><path class="d" d="M2.041,5.017a4.253,4.253,0,0,0,3.405.1l.072-.029C6.609,4.634,7.924,3.581,7.64,2.269a1.147,1.147,0,0,0-2.226.138A2.2,2.2,0,0,1,2.6,2.9,3.129,3.129,0,0,1,1.491,1.474,6.549,6.549,0,0,0,.928.014.046.046,0,0,0,.883,0C-.063.222-.085,1.735.076,2.469A3.828,3.828,0,0,0,2.041,5.017Z" transform="matrix(-0.966, 0.259, -0.259, -0.966, 8.821, 5.24)"/></g></g><path class="a" d="M228.885,144.9a54.14,54.14,0,1,0,65.011,40.51,54.14,54.14,0,0,0-65.011-40.51Zm21.931,94.418A42.762,42.762,0,1,1,282.785,188a42.762,42.762,0,0,1-31.968,51.312Z" transform="translate(-187.002 -143.477)"/><rect class="o" width="19.37" height="58.084" rx="6.27" transform="matrix(0.974, -0.226, 0.226, 0.974, 62.947, 134.851)"/><g class="p" transform="translate(11.372 11.403)"><path class="k" d="M284.646,189.852a42.753,42.753,0,1,1-51.321-31.985A42.753,42.753,0,0,1,284.646,189.852Z" transform="translate(-200.235 -156.747)"/><path class="c" d="M292.367,209.29a42.779,42.779,0,0,1-44.687,40.338Z" transform="translate(-206.908 -164.136)"/><path class="c" d="M266.028,163.509l-61.212,55.248a42.511,42.511,0,0,1-3.437-9.547,41.946,41.946,0,0,1-1.066-11.576l45.194-40.794A42.7,42.7,0,0,1,266.028,163.509Z" transform="translate(-200.239 -156.76)"/><path class="c" d="M286.362,189.248l-58.308,52.619a42.7,42.7,0,0,1-7.244-4.237L282.9,181.6A41.361,41.361,0,0,1,286.362,189.248Z" transform="translate(-203.129 -160.242)"/><path class="c" d="M271.816,168.5l-62.957,56.8c-.292-.43-.584-.859-.859-1.3l62.6-56.486A13.527,13.527,0,0,1,271.816,168.5Z" transform="translate(-201.327 -158.262)"/><path class="c" d="M231.749,158.68l-27.929,25.2c.473-1.195,1.005-2.363,1.59-3.5l22.713-20.5C229.3,159.436,230.512,159.032,231.749,158.68Z" transform="translate(-200.739 -157.019)"/></g><path class="k" d="M213.555,208.129a1.221,1.221,0,0,1,0-.172c-.155-.859.112.816,0,.258a18.644,18.644,0,0,1-.223-1.985,41.541,41.541,0,0,1,0-7.012c0-.335.06-.662.086-.988,0-.1-.095.773,0,.077l.077-.6c.1-.773.232-1.547.387-2.312a38.2,38.2,0,0,1,1.315-4.976c.129-.387.275-.773.412-1.16.18-.524-.241.576.043-.112l.284-.679c.37-.859.773-1.719,1.2-2.578s.988-1.779,1.53-2.63c.258-.4.516-.782.782-1.169.455-.662-.215.266.137-.2l.507-.67a39.393,39.393,0,0,1,5.225-5.414s.4-.318.1-.077.155-.129.206-.172l.859-.679c.576-.43,1.16-.859,1.762-1.237a44.507,44.507,0,0,1,3.9-2.329,3.228,3.228,0,1,0-3.437-5.465,40.442,40.442,0,0,0-18.975,20.693,44.421,44.421,0,0,0-2.965,19.069,31.917,31.917,0,0,0,.55,4.3,3.231,3.231,0,0,0,4,2.174,3.326,3.326,0,0,0,2.174-4.013Z" transform="translate(-189.77 -146.554)"/><path class="k" d="M216.986,225.4a3.154,3.154,0,1,1-1.524-1.885,3.162,3.162,0,0,1,1.524,1.885Z" transform="translate(-190.348 -154.68)"/><path class="g" d="M365.488,254.874c7.734,27.964,11.447,56.039,7.167,70.519-2.733,9.23-9.324,15.468-13.518,17.531-9.805,4.847-42.332-2.028-63.524-6.291-5.208-1.048,7.073-43.011,12.306-40.785,7.734,3.274,31.41,7.691,32.063,7.906,1.4.481,4.3-29.863,6.342-47.651C349.152,231.319,361.028,238.727,365.488,254.874Z" transform="translate(-202.1 -157.06)"/><path class="g" d="M247.769,294.8c-2.3,3.755.687,7.193.687,7.193a9.384,9.384,0,0,0-4.4,4.632c-1.384,3.609,3.669,7.365,3.669,7.365a11.524,11.524,0,0,0-3.859,5.62c-.98,3.592,3.584,8.1,3.584,8.1a10.149,10.149,0,0,0-.284,7.081c2.277,6.11,12.031,8.112,18.218,9.453s24.99-.687,28.617-.7L302.9,303.9s-26.047-13.879-33.515-14.411C263.031,289.059,250.356,290.589,247.769,294.8Z" transform="translate(-194.98 -164.002)"/><path class="d" d="M249.69,303.294c6.875-1.126,13.629-.18,20.461.378a.12.12,0,1,1,0,.241c-6.8-.636-13.629.077-20.427-.284a.172.172,0,0,1-.034-.335Z" transform="translate(-195.802 -165.88)"/><path class="d" d="M248.641,317.433a17.745,17.745,0,0,1,4.709.3q2.484.326,4.958.739,4.958.859,9.865,1.9c.146,0,.137.258,0,.232-3.3-.541-6.6-1.031-9.908-1.435-1.659-.206-3.317-.387-4.984-.567a21.279,21.279,0,0,1-4.666-.713.241.241,0,0,1,.026-.455Z" transform="translate(-195.646 -167.936)"/><path class="d" d="M248.211,333.99a12.678,12.678,0,0,1,4.228.5c1.5.284,3,.55,4.5.816,3.008.533,6.016,1.057,9.04,1.487.146,0,.129.258,0,.232-3.077-.413-6.153-.791-9.221-1.229-1.5-.215-3.016-.447-4.52-.679a11.79,11.79,0,0,1-4.039-.971.086.086,0,0,1,.009-.155Z" transform="translate(-195.603 -170.262)"/><path class="d" d="M256.191,290.9c-3.119.4-6.694,1.091-8.714,3.747a5.638,5.638,0,0,0-1.28,4.03,5.422,5.422,0,0,0,1.925,3.48h0a6.961,6.961,0,0,0-4.761,5.672,4.744,4.744,0,0,0,1.229,3.584c.43.507.92.954,1.392,1.418s1,.859,1.487,1.263a13.072,13.072,0,0,0-1.487,1.358,10.456,10.456,0,0,0-1.384,1.633,7.3,7.3,0,0,0-1.358,4,7.167,7.167,0,0,0,1.427,3.944,8.172,8.172,0,0,0,2.862,2.87.069.069,0,0,0,.077-.112,11.791,11.791,0,0,1-2.329-2.93,7.537,7.537,0,0,1-1.177-3.9,7.82,7.82,0,0,1,1.289-3.669,19.275,19.275,0,0,1,1.186-1.719,15.02,15.02,0,0,0,1.186-1.427s-1.023-1.083-1.384-1.547-.713-.962-1.04-1.47a4.744,4.744,0,0,1-.859-3.326,6.127,6.127,0,0,1,1.444-2.956c.722-.859,1.659-1.538,2.415-2.38a.387.387,0,0,0,.043-.3c-1.719-2.681-1.5-5.225.335-7.21a11.67,11.67,0,0,1,3.24-2.346,28.814,28.814,0,0,1,4.3-1.555C256.311,291.037,256.285,290.891,256.191,290.9Z" transform="translate(-194.911 -164.211)"/><path class="d" d="M315.285,357.038c-1.83-.567-3.764-.859-5.637-1.272s-3.764-.8-5.655-1.177-3.858-.756-5.783-1.117-3.721-.765-5.594-.988a22.97,22.97,0,0,0-5.431.12q-2.724.309-5.466.438a78.938,78.938,0,0,1-11.043-.241,74.65,74.65,0,0,1-12.3-2.191c-.086,0-.112.1,0,.129a66.841,66.841,0,0,0,21.682,3.437c1.822,0,3.652-.112,5.466-.292a48.673,48.673,0,0,1,5.466-.464,35.157,35.157,0,0,1,5.741.859c1.9.352,3.79.713,5.689,1.048,2.148.378,4.3.765,6.454,1.1s4.3.816,6.411.971A.2.2,0,0,0,315.285,357.038Z" transform="translate(-197.03 -172.608)"/><path class="d" d="M348.825,314.4c-2.75-.937-5.655-1.521-8.482-2.2s-5.689-1.332-8.533-1.977c-5.431-1.229-10.931-2.269-16.328-3.773-1.418-.4-2.819-.859-4.2-1.323a19.251,19.251,0,0,1-2.054-.859c-.679-.335-1.461-.541-2.131-.859-.077-.052-.138.069-.06.12.541.335,1.04.739,1.6,1.066s1.237.653,1.873.945a35.23,35.23,0,0,0,3.566,1.4c2.527.859,5.156,1.452,7.734,2.054q8.508,1.946,17.041,3.807c1.6.344,3.205.687,4.812,1.005s3.36.713,5.062.9a.163.163,0,0,0,.1-.309Z" transform="translate(-203.878 -165.968)"/><path class="h" d="M345.26,295.006l39.307,5.345s-7.184-40.863-14.824-54.4c-7.537-13.354-15.855-4.529-19.026,11.627C347.159,275.49,345.26,295.006,345.26,295.006Z" transform="translate(-209.26 -156.974)"/><path class="i" d="M382.03,302.649c-1.1-.258-2.226-.421-3.326-.662s-2.157-.4-3.24-.576c-2.209-.344-4.426-.653-6.643-.954-4.366-.6-8.723-1.263-13.105-1.719-2.492-.275-4.976-.645-7.468-.859a.069.069,0,1,0,0,.137c4.34,1.014,8.765,1.77,13.165,2.484s8.731,1.384,13.114,1.865c1.229.129,2.458.292,3.7.352s2.535.172,3.8.2a.133.133,0,0,0,.009-.266Z" transform="translate(-209.67 -165.192)"/></g><g transform="translate(336.943 120.68)"><path class="k" d="M403.308,126.166a26.228,26.228,0,0,1-43.827,16.594l-13.131,1.934,6.574-11.352a26.245,26.245,0,1,1,50.4-7.176Z" transform="translate(-345.456 -96.951)"/><path class="o" d="M403.162,126.129a26.348,26.348,0,0,1-5.294,13.3,24.061,24.061,0,0,1-5.156,5.079,26.64,26.64,0,0,1-13.4,5.208,24.542,24.542,0,0,1-3.644.069,22.273,22.273,0,0,1-3.626-.378,26.477,26.477,0,0,1-12.985-6.4l.309.095-13.105,2.011-.954.146.481-.859,6.531-11.369v.447a26.563,26.563,0,0,1,32.9-35.234,26.863,26.863,0,0,1,10.115,6.2,26.348,26.348,0,0,1,7.82,21.682Zm0,0a25.984,25.984,0,0,0-40.6-24.062,26.984,26.984,0,0,0-7.846,8.594,25.919,25.919,0,0,0-3.334,11.1,26.374,26.374,0,0,0,1.848,11.429l.095.241-.12.215L346.6,144.974l-.473-.7,13.14-1.839h.18l.129.12a25.919,25.919,0,0,0,12.572,6.471,22.489,22.489,0,0,0,3.558.438,26.374,26.374,0,0,0,3.592,0,25.78,25.78,0,0,0,7-1.547,24.389,24.389,0,0,0,6.333-3.437,28.357,28.357,0,0,0,2.767-2.312,29.732,29.732,0,0,0,2.389-2.707A26.366,26.366,0,0,0,403.162,126.129Z" transform="translate(-345.31 -96.913)"/><path class="f" d="M367.33,137.563a2.578,2.578,0,0,1,2.578-2.7,2.7,2.7,0,0,1,0,5.4,2.578,2.578,0,0,1-2.578-2.7Zm1.091-6.222-.61-20.891h4.176l-.645,20.865Z" transform="translate(-348.406 -98.817)"/><path class="f" d="M379,137.563a2.578,2.578,0,0,1,2.578-2.7,2.7,2.7,0,0,1,0,5.4,2.578,2.578,0,0,1-2.578-2.7Zm1.091-6.222-.61-20.891h4.177l-.61,20.891Z" transform="translate(-350.048 -98.817)"/><path class="f" d="M390.63,137.563a2.578,2.578,0,0,1,2.578-2.7,2.7,2.7,0,1,1,0,5.4,2.578,2.578,0,0,1-2.578-2.7Zm1.091-6.222-.61-20.891h4.176l-.61,20.891Z" transform="translate(-351.683 -98.817)"/></g></g></svg>
