<svg xmlns="http://www.w3.org/2000/svg" width="337.681" height="275" viewBox="0 0 337.681 275"><defs><style>.a,.b{fill:none;stroke:#ebebeb;stroke-miterlimit:10;}.a{stroke-width:0.75px;}.c{fill:#ebebeb;}.d{fill:#0b032d;}.e{fill:#2f294c;}.f{fill:#fcbf17;}.g{fill:#263238;}.h{opacity:0.1;}.i{fill:#c7c7c7;}.j{fill:#a6a6a6;}.k{fill:#fff;}</style></defs><g transform="translate(-36.85 -73.215)"><g transform="translate(40.407 108.179)"><rect class="a" width="20.975" height="8.864" transform="translate(186.259 20.041) rotate(180)"/><rect class="a" width="20.975" height="8.864" transform="translate(197.959 8.864) rotate(180)"/><rect class="a" width="20.975" height="8.864" transform="translate(209.611 20.041) rotate(180)"/><rect class="a" width="20.975" height="8.864" transform="translate(32.683 129.806) rotate(180)"/><rect class="a" width="20.975" height="8.864" transform="translate(20.975 118.652) rotate(180)"/><rect class="a" width="20.975" height="8.864" transform="translate(318.86 129.806) rotate(180)"/><path class="b" d="M208.82,373.223V273.906l21.173-28.84V191.06" transform="translate(-76.156 -163.969)"/><path class="b" d="M233.18,188.235a1.877,1.877,0,1,0,.547-1.333,1.885,1.885,0,0,0-.547,1.333Z" transform="translate(-81.219 -162.99)"/><path class="b" d="M215.71,378.825V282.78l21.173-28.9V216.06" transform="translate(-77.588 -169.571)"/><path class="b" d="M240.06,213.227a1.885,1.885,0,1,0,1.885-1.877A1.885,1.885,0,0,0,240.06,213.227Z" transform="translate(-82.65 -168.272)"/><line class="b" y1="131.817" transform="translate(127.413 77.437)"/><path class="b" d="M199.81,252.257a1.885,1.885,0,1,0,1.885-1.877,1.885,1.885,0,0,0-1.885,1.877Z" transform="translate(-74.283 -176.446)"/><path class="b" d="M192.029,384.086v-67L177.66,289.982V241.37" transform="translate(-69.678 -174.833)"/><path class="b" d="M175.28,238.505a1.877,1.877,0,1,0,.55-1.335,1.885,1.885,0,0,0-.55,1.335Z" transform="translate(-69.183 -173.565)"/><path class="b" d="M185,388.452v-64.1L168.06,294.38V262.37" transform="translate(-67.682 -179.198)"/><path class="b" d="M165.68,259.507a1.885,1.885,0,1,0,1.885-1.877A1.885,1.885,0,0,0,165.68,259.507Z" transform="translate(-67.188 -177.965)"/></g><g transform="translate(68.955 321.299)"><ellipse class="c" cx="84.29" cy="13.458" rx="84.29" ry="13.458"/></g><g transform="translate(219.45 117.28)"><rect class="d" width="51.504" height="194.204" transform="translate(0 5.988)"/><rect class="e" width="94.785" height="194.204" transform="translate(51.504 5.988)"/><rect class="d" width="81.755" height="18.884" transform="translate(58.617 175.003)"/><rect class="e" width="46.537" height="1.592" transform="translate(62.055 178.124)"/><rect class="e" width="46.537" height="1.592" transform="translate(62.055 180.889)"/><rect class="e" width="46.537" height="1.592" transform="translate(62.055 183.653)"/><rect class="e" width="46.537" height="1.592" transform="translate(62.055 186.41)"/><rect class="e" width="46.537" height="1.592" transform="translate(62.055 189.174)"/><path class="f" d="M414.339,395.314a1.584,1.584,0,1,1-1.584-1.584A1.584,1.584,0,0,1,414.339,395.314Z" transform="translate(-297.263 -215.606)"/><path class="f" d="M420.918,395.314a1.584,1.584,0,1,1-1.584-1.584A1.584,1.584,0,0,1,420.918,395.314Z" transform="translate(-298.631 -215.606)"/><path class="f" d="M427.5,395.314a1.584,1.584,0,1,1-1.584-1.584A1.584,1.584,0,0,1,427.5,395.314Z" transform="translate(-299.999 -215.606)"/><path class="f" d="M434.068,395.314a1.584,1.584,0,1,1-1.584-1.584A1.584,1.584,0,0,1,434.068,395.314Z" transform="translate(-301.364 -215.606)"/><path class="f" d="M440.648,395.314a1.584,1.584,0,1,1-1.584-1.584A1.584,1.584,0,0,1,440.648,395.314Z" transform="translate(-302.732 -215.606)"/><path class="f" d="M414.339,401.294a1.584,1.584,0,1,1-1.584-1.584A1.584,1.584,0,0,1,414.339,401.294Z" transform="translate(-297.263 -216.849)"/><path class="f" d="M420.918,401.294a1.584,1.584,0,1,1-1.584-1.584A1.584,1.584,0,0,1,420.918,401.294Z" transform="translate(-298.631 -216.849)"/><path class="f" d="M427.5,401.294a1.584,1.584,0,1,1-1.584-1.584A1.584,1.584,0,0,1,427.5,401.294Z" transform="translate(-299.999 -216.849)"/><path class="f" d="M434.068,401.294a1.584,1.584,0,1,1-1.584-1.584A1.584,1.584,0,0,1,434.068,401.294Z" transform="translate(-301.364 -216.849)"/><path class="f" d="M440.648,401.294a1.584,1.584,0,1,1-1.584-1.584A1.584,1.584,0,0,1,440.648,401.294Z" transform="translate(-302.732 -216.849)"/><circle class="f" cx="1.584" cy="1.584" r="1.584" transform="translate(113.915 187.606)"/><path class="f" d="M420.918,407.284a1.584,1.584,0,1,1-1.584-1.584A1.584,1.584,0,0,1,420.918,407.284Z" transform="translate(-298.631 -218.094)"/><circle class="f" cx="1.584" cy="1.584" r="1.584" transform="translate(124.331 187.606)"/><path class="f" d="M434.068,407.284a1.584,1.584,0,1,1-1.584-1.584A1.584,1.584,0,0,1,434.068,407.284Z" transform="translate(-301.364 -218.094)"/><path class="f" d="M440.648,407.284a1.584,1.584,0,1,1-1.584-1.584A1.584,1.584,0,0,1,440.648,407.284Z" transform="translate(-302.732 -218.094)"/><rect class="e" width="0.911" height="12.642" transform="translate(110.921 178.124)"/><rect class="d" width="81.755" height="18.884" transform="translate(58.617 152.254)"/><rect class="e" width="46.537" height="1.592" transform="translate(62.055 155.367)"/><rect class="e" width="46.537" height="1.592" transform="translate(62.055 158.131)"/><rect class="e" width="46.537" height="1.592" transform="translate(62.055 160.896)"/><rect class="e" width="46.537" height="1.592" transform="translate(62.055 163.66)"/><rect class="e" width="46.537" height="1.592" transform="translate(62.055 166.417)"/><path class="f" d="M414.339,366.584A1.584,1.584,0,1,1,412.754,365,1.584,1.584,0,0,1,414.339,366.584Z" transform="translate(-297.263 -209.633)"/><path class="f" d="M420.918,366.584A1.584,1.584,0,1,1,419.334,365,1.584,1.584,0,0,1,420.918,366.584Z" transform="translate(-298.631 -209.633)"/><path class="f" d="M427.5,366.584A1.584,1.584,0,1,1,425.914,365,1.584,1.584,0,0,1,427.5,366.584Z" transform="translate(-299.999 -209.633)"/><path class="f" d="M434.068,366.584A1.584,1.584,0,1,1,432.484,365,1.584,1.584,0,0,1,434.068,366.584Z" transform="translate(-301.364 -209.633)"/><path class="f" d="M440.648,366.584A1.584,1.584,0,1,1,439.064,365,1.584,1.584,0,0,1,440.648,366.584Z" transform="translate(-302.732 -209.633)"/><path class="f" d="M414.339,372.584A1.584,1.584,0,1,1,412.754,371,1.584,1.584,0,0,1,414.339,372.584Z" transform="translate(-297.263 -210.881)"/><path class="f" d="M420.918,372.584A1.584,1.584,0,1,1,419.334,371,1.584,1.584,0,0,1,420.918,372.584Z" transform="translate(-298.631 -210.881)"/><path class="f" d="M427.5,372.584A1.584,1.584,0,1,1,425.914,371,1.584,1.584,0,0,1,427.5,372.584Z" transform="translate(-299.999 -210.881)"/><path class="f" d="M434.068,372.584A1.584,1.584,0,1,1,432.484,371,1.584,1.584,0,0,1,434.068,372.584Z" transform="translate(-301.364 -210.881)"/><path class="f" d="M440.648,372.584A1.584,1.584,0,1,1,439.064,371,1.584,1.584,0,0,1,440.648,372.584Z" transform="translate(-302.732 -210.881)"/><path class="f" d="M414.339,378.584A1.584,1.584,0,1,1,412.754,377,1.584,1.584,0,0,1,414.339,378.584Z" transform="translate(-297.263 -212.128)"/><path class="f" d="M420.918,378.584A1.584,1.584,0,1,1,419.334,377,1.584,1.584,0,0,1,420.918,378.584Z" transform="translate(-298.631 -212.128)"/><path class="f" d="M427.5,378.584A1.584,1.584,0,1,1,425.914,377,1.584,1.584,0,0,1,427.5,378.584Z" transform="translate(-299.999 -212.128)"/><path class="f" d="M434.068,378.584A1.584,1.584,0,1,1,432.484,377,1.584,1.584,0,0,1,434.068,378.584Z" transform="translate(-301.364 -212.128)"/><path class="f" d="M440.648,378.584A1.584,1.584,0,1,1,439.064,377,1.584,1.584,0,0,1,440.648,378.584Z" transform="translate(-302.732 -212.128)"/><rect class="e" width="0.911" height="12.642" transform="translate(110.921 155.367)"/><rect class="d" width="81.755" height="18.884" transform="translate(58.617 129.496)"/><rect class="e" width="46.537" height="1.592" transform="translate(62.055 132.617)"/><rect class="e" width="46.537" height="1.592" transform="translate(62.055 135.374)"/><rect class="e" width="46.537" height="1.592" transform="translate(62.055 138.138)"/><rect class="e" width="46.537" height="1.592" transform="translate(62.055 140.903)"/><rect class="e" width="46.537" height="1.592" transform="translate(62.055 143.667)"/><circle class="f" cx="1.584" cy="1.584" r="1.584" transform="translate(113.915 132.609)"/><path class="f" d="M420.918,337.854a1.584,1.584,0,1,1-1.584-1.584A1.584,1.584,0,0,1,420.918,337.854Z" transform="translate(-298.631 -203.661)"/><circle class="f" cx="1.584" cy="1.584" r="1.584" transform="translate(124.331 132.609)"/><path class="f" d="M434.068,337.854a1.584,1.584,0,1,1-1.584-1.584A1.584,1.584,0,0,1,434.068,337.854Z" transform="translate(-301.364 -203.661)"/><path class="f" d="M440.648,337.854a1.584,1.584,0,1,1-1.584-1.584A1.584,1.584,0,0,1,440.648,337.854Z" transform="translate(-302.732 -203.661)"/><path class="f" d="M414.339,343.844a1.584,1.584,0,1,1-1.584-1.584A1.584,1.584,0,0,1,414.339,343.844Z" transform="translate(-297.263 -204.906)"/><path class="f" d="M420.918,343.844a1.584,1.584,0,1,1-1.584-1.584A1.584,1.584,0,0,1,420.918,343.844Z" transform="translate(-298.631 -204.906)"/><path class="f" d="M427.5,343.844a1.584,1.584,0,1,1-1.584-1.584A1.584,1.584,0,0,1,427.5,343.844Z" transform="translate(-299.999 -204.906)"/><path class="f" d="M434.068,343.844a1.584,1.584,0,1,1-1.584-1.584A1.584,1.584,0,0,1,434.068,343.844Z" transform="translate(-301.364 -204.906)"/><path class="f" d="M440.648,343.844a1.584,1.584,0,1,1-1.584-1.584A1.584,1.584,0,0,1,440.648,343.844Z" transform="translate(-302.732 -204.906)"/><path class="f" d="M414.339,349.824a1.584,1.584,0,1,1-1.584-1.584A1.584,1.584,0,0,1,414.339,349.824Z" transform="translate(-297.263 -206.149)"/><path class="f" d="M420.918,349.824a1.584,1.584,0,1,1-1.584-1.584A1.584,1.584,0,0,1,420.918,349.824Z" transform="translate(-298.631 -206.149)"/><path class="f" d="M427.5,349.824a1.584,1.584,0,1,1-1.584-1.584A1.584,1.584,0,0,1,427.5,349.824Z" transform="translate(-299.999 -206.149)"/><path class="f" d="M434.068,349.824a1.584,1.584,0,1,1-1.584-1.584A1.584,1.584,0,0,1,434.068,349.824Z" transform="translate(-301.364 -206.149)"/><path class="f" d="M440.648,349.824a1.584,1.584,0,1,1-1.584-1.584A1.584,1.584,0,0,1,440.648,349.824Z" transform="translate(-302.732 -206.149)"/><rect class="e" width="0.911" height="12.642" transform="translate(110.921 132.617)"/><rect class="d" width="81.755" height="18.884" transform="translate(58.617 106.738)"/><rect class="e" width="46.537" height="1.592" transform="translate(62.055 109.859)"/><rect class="e" width="46.537" height="1.592" transform="translate(62.055 112.616)"/><rect class="e" width="46.537" height="1.592" transform="translate(62.055 115.38)"/><rect class="e" width="46.537" height="1.592" transform="translate(62.055 118.145)"/><rect class="e" width="46.537" height="1.592" transform="translate(62.055 120.909)"/><path class="f" d="M414.339,309.124a1.584,1.584,0,1,1-1.584-1.584A1.584,1.584,0,0,1,414.339,309.124Z" transform="translate(-297.263 -197.689)"/><path class="f" d="M420.918,309.124a1.584,1.584,0,1,1-1.584-1.584A1.584,1.584,0,0,1,420.918,309.124Z" transform="translate(-298.631 -197.689)"/><path class="f" d="M427.5,309.124a1.584,1.584,0,1,1-1.584-1.584A1.584,1.584,0,0,1,427.5,309.124Z" transform="translate(-299.999 -197.689)"/><path class="f" d="M434.068,309.124a1.584,1.584,0,1,1-1.584-1.584A1.584,1.584,0,0,1,434.068,309.124Z" transform="translate(-301.364 -197.689)"/><path class="f" d="M440.648,309.124a1.584,1.584,0,1,1-1.584-1.584A1.584,1.584,0,0,1,440.648,309.124Z" transform="translate(-302.732 -197.689)"/><circle class="f" cx="1.584" cy="1.584" r="1.584" transform="translate(113.915 114.596)"/><path class="f" d="M420.918,315.114a1.584,1.584,0,1,1-1.584-1.584A1.584,1.584,0,0,1,420.918,315.114Z" transform="translate(-298.631 -198.934)"/><circle class="f" cx="1.584" cy="1.584" r="1.584" transform="translate(124.331 114.596)"/><path class="f" d="M434.068,315.114a1.584,1.584,0,1,1-1.584-1.584A1.584,1.584,0,0,1,434.068,315.114Z" transform="translate(-301.364 -198.934)"/><path class="f" d="M440.648,315.114a1.584,1.584,0,1,1-1.584-1.584A1.584,1.584,0,0,1,440.648,315.114Z" transform="translate(-302.732 -198.934)"/><circle class="f" cx="1.584" cy="1.584" r="1.584" transform="translate(113.915 119.333)"/><path class="f" d="M420.918,321.094a1.584,1.584,0,1,1-1.584-1.584A1.584,1.584,0,0,1,420.918,321.094Z" transform="translate(-298.631 -200.177)"/><circle class="f" cx="1.584" cy="1.584" r="1.584" transform="translate(124.331 119.333)"/><path class="f" d="M434.068,321.094a1.584,1.584,0,1,1-1.584-1.584A1.584,1.584,0,0,1,434.068,321.094Z" transform="translate(-301.364 -200.177)"/><path class="f" d="M440.648,321.094a1.584,1.584,0,1,1-1.584-1.584A1.584,1.584,0,0,1,440.648,321.094Z" transform="translate(-302.732 -200.177)"/><rect class="e" width="0.911" height="12.642" transform="translate(110.921 109.859)"/><rect class="d" width="81.755" height="18.884" transform="translate(58.617 83.981)"/><rect class="e" width="46.537" height="1.592" transform="translate(62.055 87.102)"/><rect class="e" width="46.537" height="1.592" transform="translate(62.055 89.866)"/><rect class="e" width="46.537" height="1.592" transform="translate(62.055 92.623)"/><rect class="e" width="46.537" height="1.592" transform="translate(62.055 95.387)"/><rect class="e" width="46.537" height="1.592" transform="translate(62.055 98.152)"/><circle class="f" cx="1.584" cy="1.584" r="1.584" transform="translate(113.915 87.102)"/><path class="f" d="M420.918,280.4a1.584,1.584,0,1,1-1.584-1.584A1.584,1.584,0,0,1,420.918,280.4Z" transform="translate(-298.631 -191.718)"/><circle class="f" cx="1.584" cy="1.584" r="1.584" transform="translate(124.331 87.102)"/><path class="f" d="M434.068,280.4a1.584,1.584,0,1,1-1.584-1.584A1.584,1.584,0,0,1,434.068,280.4Z" transform="translate(-301.364 -191.718)"/><path class="f" d="M440.648,280.4a1.584,1.584,0,1,1-1.584-1.584A1.584,1.584,0,0,1,440.648,280.4Z" transform="translate(-302.732 -191.718)"/><circle class="f" cx="1.584" cy="1.584" r="1.584" transform="translate(113.915 91.839)"/><path class="f" d="M420.918,286.384a1.584,1.584,0,1,1-1.584-1.584A1.584,1.584,0,0,1,420.918,286.384Z" transform="translate(-298.631 -192.961)"/><circle class="f" cx="1.584" cy="1.584" r="1.584" transform="translate(124.331 91.839)"/><path class="f" d="M434.068,286.384a1.584,1.584,0,1,1-1.584-1.584A1.584,1.584,0,0,1,434.068,286.384Z" transform="translate(-301.364 -192.961)"/><path class="f" d="M440.648,286.384a1.584,1.584,0,1,1-1.584-1.584A1.584,1.584,0,0,1,440.648,286.384Z" transform="translate(-302.732 -192.961)"/><path class="f" d="M414.339,292.374a1.584,1.584,0,1,1-1.584-1.584A1.584,1.584,0,0,1,414.339,292.374Z" transform="translate(-297.263 -194.207)"/><path class="f" d="M420.918,292.374a1.584,1.584,0,1,1-1.584-1.584A1.584,1.584,0,0,1,420.918,292.374Z" transform="translate(-298.631 -194.207)"/><path class="f" d="M427.5,292.374a1.584,1.584,0,1,1-1.584-1.584A1.584,1.584,0,0,1,427.5,292.374Z" transform="translate(-299.999 -194.207)"/><path class="f" d="M434.068,292.374a1.584,1.584,0,1,1-1.584-1.584A1.584,1.584,0,0,1,434.068,292.374Z" transform="translate(-301.364 -194.207)"/><path class="f" d="M440.648,292.374a1.584,1.584,0,1,1-1.584-1.584A1.584,1.584,0,0,1,440.648,292.374Z" transform="translate(-302.732 -194.207)"/><rect class="e" width="0.911" height="12.642" transform="translate(110.921 87.102)"/><rect class="d" width="81.755" height="18.884" transform="translate(58.617 61.223)"/><rect class="e" width="46.537" height="1.592" transform="translate(62.055 64.344)"/><rect class="e" width="46.537" height="1.592" transform="translate(62.055 67.109)"/><rect class="e" width="46.537" height="1.592" transform="translate(62.055 69.873)"/><rect class="e" width="46.537" height="1.592" transform="translate(62.055 72.63)"/><rect class="e" width="46.537" height="1.592" transform="translate(62.055 75.394)"/><path class="f" d="M414.339,251.674a1.584,1.584,0,1,1-1.584-1.584A1.584,1.584,0,0,1,414.339,251.674Z" transform="translate(-297.263 -185.746)"/><path class="f" d="M420.918,251.674a1.584,1.584,0,1,1-1.584-1.584A1.584,1.584,0,0,1,420.918,251.674Z" transform="translate(-298.631 -185.746)"/><path class="f" d="M427.5,251.674a1.584,1.584,0,1,1-1.584-1.584A1.584,1.584,0,0,1,427.5,251.674Z" transform="translate(-299.999 -185.746)"/><path class="f" d="M434.068,251.674a1.584,1.584,0,1,1-1.584-1.584A1.584,1.584,0,0,1,434.068,251.674Z" transform="translate(-301.364 -185.746)"/><path class="f" d="M440.648,251.674a1.584,1.584,0,1,1-1.584-1.584A1.584,1.584,0,0,1,440.648,251.674Z" transform="translate(-302.732 -185.746)"/><path class="f" d="M414.339,257.654a1.584,1.584,0,1,1-1.584-1.584A1.584,1.584,0,0,1,414.339,257.654Z" transform="translate(-297.263 -186.989)"/><path class="f" d="M420.918,257.654a1.584,1.584,0,1,1-1.584-1.584A1.584,1.584,0,0,1,420.918,257.654Z" transform="translate(-298.631 -186.989)"/><path class="f" d="M427.5,257.654a1.584,1.584,0,1,1-1.584-1.584A1.584,1.584,0,0,1,427.5,257.654Z" transform="translate(-299.999 -186.989)"/><path class="f" d="M434.068,257.654a1.584,1.584,0,1,1-1.584-1.584A1.584,1.584,0,0,1,434.068,257.654Z" transform="translate(-301.364 -186.989)"/><path class="f" d="M440.648,257.654a1.584,1.584,0,1,1-1.584-1.584A1.584,1.584,0,0,1,440.648,257.654Z" transform="translate(-302.732 -186.989)"/><path class="f" d="M414.339,263.644a1.584,1.584,0,1,1-1.584-1.584A1.584,1.584,0,0,1,414.339,263.644Z" transform="translate(-297.263 -188.234)"/><path class="f" d="M420.918,263.644a1.584,1.584,0,1,1-1.584-1.584A1.584,1.584,0,0,1,420.918,263.644Z" transform="translate(-298.631 -188.234)"/><path class="f" d="M427.5,263.644a1.584,1.584,0,1,1-1.584-1.584A1.584,1.584,0,0,1,427.5,263.644Z" transform="translate(-299.999 -188.234)"/><path class="f" d="M434.068,263.644a1.584,1.584,0,1,1-1.584-1.584A1.584,1.584,0,0,1,434.068,263.644Z" transform="translate(-301.364 -188.234)"/><path class="f" d="M440.648,263.644a1.584,1.584,0,1,1-1.584-1.584A1.584,1.584,0,0,1,440.648,263.644Z" transform="translate(-302.732 -188.234)"/><rect class="e" width="0.911" height="12.642" transform="translate(110.921 64.344)"/><rect class="d" width="81.755" height="18.884" transform="translate(58.617 38.473)"/><rect class="e" width="46.537" height="1.592" transform="translate(62.055 41.586)"/><rect class="e" width="46.537" height="1.592" transform="translate(62.055 44.351)"/><rect class="e" width="46.537" height="1.592" transform="translate(62.055 47.115)"/><rect class="e" width="46.537" height="1.592" transform="translate(62.055 49.88)"/><rect class="e" width="46.537" height="1.592" transform="translate(62.055 52.636)"/><path class="f" d="M414.339,222.944a1.584,1.584,0,1,1-1.584-1.584A1.584,1.584,0,0,1,414.339,222.944Z" transform="translate(-297.263 -179.774)"/><path class="f" d="M420.918,222.944a1.584,1.584,0,1,1-1.584-1.584A1.584,1.584,0,0,1,420.918,222.944Z" transform="translate(-298.631 -179.774)"/><path class="f" d="M427.5,222.944a1.584,1.584,0,1,1-1.584-1.584A1.584,1.584,0,0,1,427.5,222.944Z" transform="translate(-299.999 -179.774)"/><path class="f" d="M434.068,222.944a1.584,1.584,0,1,1-1.584-1.584A1.584,1.584,0,0,1,434.068,222.944Z" transform="translate(-301.364 -179.774)"/><path class="f" d="M440.648,222.944a1.584,1.584,0,1,1-1.584-1.584A1.584,1.584,0,0,1,440.648,222.944Z" transform="translate(-302.732 -179.774)"/><path class="f" d="M414.339,228.934a1.584,1.584,0,1,1-1.584-1.584A1.584,1.584,0,0,1,414.339,228.934Z" transform="translate(-297.263 -181.019)"/><path class="f" d="M420.918,228.934a1.584,1.584,0,1,1-1.584-1.584A1.584,1.584,0,0,1,420.918,228.934Z" transform="translate(-298.631 -181.019)"/><path class="f" d="M427.5,228.934a1.584,1.584,0,1,1-1.584-1.584A1.584,1.584,0,0,1,427.5,228.934Z" transform="translate(-299.999 -181.019)"/><path class="f" d="M434.068,228.934a1.584,1.584,0,1,1-1.584-1.584A1.584,1.584,0,0,1,434.068,228.934Z" transform="translate(-301.364 -181.019)"/><path class="f" d="M440.648,228.934a1.584,1.584,0,1,1-1.584-1.584A1.584,1.584,0,0,1,440.648,228.934Z" transform="translate(-302.732 -181.019)"/><path class="f" d="M414.339,234.914a1.584,1.584,0,1,1-1.584-1.584A1.584,1.584,0,0,1,414.339,234.914Z" transform="translate(-297.263 -182.262)"/><path class="f" d="M420.918,234.914a1.584,1.584,0,1,1-1.584-1.584A1.584,1.584,0,0,1,420.918,234.914Z" transform="translate(-298.631 -182.262)"/><path class="f" d="M427.5,234.914a1.584,1.584,0,1,1-1.584-1.584A1.584,1.584,0,0,1,427.5,234.914Z" transform="translate(-299.999 -182.262)"/><path class="f" d="M434.068,234.914a1.584,1.584,0,1,1-1.584-1.584A1.584,1.584,0,0,1,434.068,234.914Z" transform="translate(-301.364 -182.262)"/><path class="f" d="M440.648,234.914a1.584,1.584,0,1,1-1.584-1.584A1.584,1.584,0,0,1,440.648,234.914Z" transform="translate(-302.732 -182.262)"/><rect class="e" width="0.911" height="12.642" transform="translate(110.921 41.586)"/><rect class="d" width="81.755" height="18.884" transform="translate(58.617 15.716)"/><rect class="e" width="46.537" height="1.592" transform="translate(62.055 18.837)"/><rect class="e" width="46.537" height="1.592" transform="translate(62.055 21.593)"/><rect class="e" width="46.537" height="1.592" transform="translate(62.055 24.358)"/><rect class="e" width="46.537" height="1.592" transform="translate(62.055 27.122)"/><rect class="e" width="46.537" height="1.592" transform="translate(62.055 29.887)"/><path class="f" d="M414.339,194.214a1.584,1.584,0,1,1-1.584-1.584A1.584,1.584,0,0,1,414.339,194.214Z" transform="translate(-297.263 -173.801)"/><path class="f" d="M420.918,194.214a1.584,1.584,0,1,1-1.584-1.584A1.584,1.584,0,0,1,420.918,194.214Z" transform="translate(-298.631 -173.801)"/><path class="f" d="M427.5,194.214a1.584,1.584,0,1,1-1.584-1.584A1.584,1.584,0,0,1,427.5,194.214Z" transform="translate(-299.999 -173.801)"/><path class="f" d="M434.068,194.214a1.584,1.584,0,1,1-1.584-1.584A1.584,1.584,0,0,1,434.068,194.214Z" transform="translate(-301.364 -173.801)"/><path class="f" d="M440.648,194.214a1.584,1.584,0,1,1-1.584-1.584A1.584,1.584,0,0,1,440.648,194.214Z" transform="translate(-302.732 -173.801)"/><circle class="f" cx="1.584" cy="1.584" r="1.584" transform="translate(113.915 23.574)"/><path class="f" d="M420.918,200.2a1.584,1.584,0,1,1-1.584-1.584A1.584,1.584,0,0,1,420.918,200.2Z" transform="translate(-298.631 -175.046)"/><circle class="f" cx="1.584" cy="1.584" r="1.584" transform="translate(124.331 23.574)"/><path class="f" d="M434.068,200.2a1.584,1.584,0,1,1-1.584-1.584A1.584,1.584,0,0,1,434.068,200.2Z" transform="translate(-301.364 -175.046)"/><path class="f" d="M440.648,200.2a1.584,1.584,0,1,1-1.584-1.584A1.584,1.584,0,0,1,440.648,200.2Z" transform="translate(-302.732 -175.046)"/><path class="f" d="M414.339,206.184a1.584,1.584,0,1,1-1.584-1.584A1.584,1.584,0,0,1,414.339,206.184Z" transform="translate(-297.263 -176.29)"/><path class="f" d="M420.918,206.184a1.584,1.584,0,1,1-1.584-1.584A1.584,1.584,0,0,1,420.918,206.184Z" transform="translate(-298.631 -176.29)"/><path class="f" d="M427.5,206.184a1.584,1.584,0,1,1-1.584-1.584A1.584,1.584,0,0,1,427.5,206.184Z" transform="translate(-299.999 -176.29)"/><path class="f" d="M434.068,206.184a1.584,1.584,0,1,1-1.584-1.584A1.584,1.584,0,0,1,434.068,206.184Z" transform="translate(-301.364 -176.29)"/><path class="f" d="M440.648,206.184a1.584,1.584,0,1,1-1.584-1.584A1.584,1.584,0,0,1,440.648,206.184Z" transform="translate(-302.732 -176.29)"/><rect class="e" width="0.911" height="12.642" transform="translate(110.921 18.837)"/><rect class="d" width="107.768" height="5.988" transform="translate(19.264)"/><rect class="f" width="12.032" height="12.032" transform="translate(8.309 170.472)"/></g><path class="d" d="M28.48-45.52Q15.68-34.48,13.36-22.24a12.184,12.184,0,0,0-.32,2.8,5.758,5.758,0,0,0,1.28,4.08A4.7,4.7,0,0,0,17.92-14a3.836,3.836,0,0,0,3.52-2.08,10.515,10.515,0,0,0,1.28-5.04L30.8-22.4a14.6,14.6,0,0,0,1.24,5.96A3.716,3.716,0,0,0,35.52-14q4.72,0,4.72-5.76,0-7.36-8.16-15.04A85.582,85.582,0,0,0,12.16-48.48l6.96-12.48a94.461,94.461,0,0,1,21.96,19.4q9,11,9,24.12a25.893,25.893,0,0,1-1.64,9.48A15.1,15.1,0,0,1,43.8-1.4,10.764,10.764,0,0,1,36.96.96q-5.36,0-9.52-5.04T22.72-21.12L30.8-22.4Q30.32-9.68,26.96-4.36A10.85,10.85,0,0,1,17.2.96,12.5,12.5,0,0,1,9.64-1.4,14.866,14.866,0,0,1,4.68-7.92a24.516,24.516,0,0,1-1.72-9.44,29.66,29.66,0,0,1,.16-3.6A42.437,42.437,0,0,1,6.96-34.08,68.266,68.266,0,0,1,14.4-46.52a60.571,60.571,0,0,1,8.48-9.32Zm43.44,44A13.981,13.981,0,0,1,64.6-3.56,15.627,15.627,0,0,1,59.16-9a14.122,14.122,0,0,1-2.04-7.4,14.122,14.122,0,0,1,2.04-7.4,15.3,15.3,0,0,1,5.44-5.4,14.192,14.192,0,0,1,7.32-2,14.549,14.549,0,0,1,7.44,2,15.3,15.3,0,0,1,5.48,5.36,14.059,14.059,0,0,1,2.04,7.44A14.123,14.123,0,0,1,84.84-9a15.52,15.52,0,0,1-5.48,5.44A14.331,14.331,0,0,1,71.92-1.52Zm0-10.32A4.162,4.162,0,0,0,75-13.2a4.445,4.445,0,0,0,1.32-3.2A4.311,4.311,0,0,0,75-19.56a4.221,4.221,0,0,0-3.08-1.32,4.079,4.079,0,0,0-3,1.36A4.354,4.354,0,0,0,67.6-16.4a4.489,4.489,0,0,0,1.32,3.16A4.029,4.029,0,0,0,71.92-11.84ZM111.68-1.52a13.981,13.981,0,0,1-7.32-2.04A15.627,15.627,0,0,1,98.92-9a14.123,14.123,0,0,1-2.04-7.4,14.123,14.123,0,0,1,2.04-7.4,15.3,15.3,0,0,1,5.44-5.4,14.192,14.192,0,0,1,7.32-2,14.549,14.549,0,0,1,7.44,2,15.3,15.3,0,0,1,5.48,5.36,14.059,14.059,0,0,1,2.04,7.44A14.123,14.123,0,0,1,124.6-9a15.52,15.52,0,0,1-5.48,5.44A14.331,14.331,0,0,1,111.68-1.52Zm0-10.32a4.162,4.162,0,0,0,3.08-1.36,4.445,4.445,0,0,0,1.32-3.2,4.311,4.311,0,0,0-1.32-3.16,4.221,4.221,0,0,0-3.08-1.32,4.079,4.079,0,0,0-3,1.36,4.354,4.354,0,0,0-1.32,3.12,4.489,4.489,0,0,0,1.32,3.16A4.029,4.029,0,0,0,111.68-11.84Z" transform="translate(63.109 163.372)"/><g transform="translate(42.086 263.828)"><rect class="d" width="21.039" height="21.039"/><circle class="f" cx="7.026" cy="7.026" r="7.026" transform="translate(3.493 3.485)"/><rect class="d" width="1.584" height="5.798" transform="translate(7.652 7.676)"/><rect class="d" width="1.584" height="5.798" transform="translate(12.056 7.676)"/></g><g transform="translate(36.85 317.077)"><path class="g" d="M36.85,421.486l42.212-.19,42.212-.071,84.416-.135,84.416.135,42.212.071,42.212.19-42.212.2-42.212.071-84.416.127-84.416-.135-42.212-.071Z" transform="translate(-36.85 -421.09)"/></g><g transform="translate(77.39 229.642)"><path class="f" d="M122.813,396.082c.792,1.679-2.25,13.712-3.168,16.183s-4.27,16.262-5.885,16.856-9.45.428-10.559,0,0-2.78,1.275-3.6,2.8-2.083,2.8-2.083-2.289-21.3-1.861-23.684S120.754,391.575,122.813,396.082Z" transform="translate(-91.088 -328.11)"/><path class="h" d="M122.813,396.082c.792,1.679-2.25,13.712-3.168,16.183s-4.27,16.262-5.885,16.856-9.45.428-10.559,0,0-2.78,1.275-3.6,2.8-2.083,2.8-2.083-2.289-21.3-1.861-23.684S120.754,391.575,122.813,396.082Z" transform="translate(-91.088 -328.11)"/><path class="h" d="M107.376,436.367a3.089,3.089,0,0,1,.515-1.18,4.437,4.437,0,0,1,.9-.911,2.916,2.916,0,0,1,1.125-.547.055.055,0,0,1,.055.1c-.143.127-.3.238-.436.372s-.285.277-.412.42a4.812,4.812,0,0,0-.673.919c-.2.325-.38.657-.554,1.006a10.443,10.443,0,0,0-.4,1.085.079.079,0,1,1-.158,0A2.907,2.907,0,0,1,107.376,436.367Z" transform="translate(-92.032 -336.282)"/><path class="h" d="M104.435,435.041a3.961,3.961,0,0,1,1.909-1.671c.055,0,.111.04.063.079a6.44,6.44,0,0,0-1.521,1.719,2.9,2.9,0,0,0-.3,2.258s0,.047-.055,0a2.313,2.313,0,0,1-.1-2.384Z" transform="translate(-91.38 -336.208)"/><path class="h" d="M106.743,411.519l10.765,10.187c1.188-3.905,2.3-8.151,2.78-9.41.951-2.471,3.961-14.5,3.168-16.183-2.067-4.507-17.015,1.283-17.427,3.668A109.027,109.027,0,0,0,106.743,411.519Z" transform="translate(-91.763 -328.116)"/><path class="f" d="M179.41,407.9c.436.412,4.674-3.6,5.323-5.474s-2.06-7.177-1.584-8.08a2.726,2.726,0,0,1,4.008-.238c1.2,1.386,4.262,8.983,3.628,12.23s-7.153,10.5-7.842,10.5S179.41,407.9,179.41,407.9Z" transform="translate(-107.025 -327.885)"/><path class="h" d="M179.41,410.857s2.86,8.872,3.533,8.911c.5,0,4.127-3.85,6.3-7.2l-5.933-5C181.81,409.336,179.711,411.142,179.41,410.857Z" transform="translate(-107.025 -330.845)"/><path class="i" d="M139.343,365.46h-35.17s-2.614,23.162-2.329,26.227,15.739,25.776,20.532,28.706,32.342,3.073,39.044,1.584c5.212-1.149,9.561-7.8,7.4-18.044-.943-4.483-13.157-15.161-14.86-17.2S139.343,365.46,139.343,365.46Z" transform="translate(-90.896 -322.091)"/><path class="f" d="M101.844,391.683c.285,3.065,15.739,25.776,20.54,28.706s32.334,3.073,39.044,1.584c5.2-1.149,9.561-7.8,7.39-18.052-.943-4.475-13.149-15.153-14.852-17.2-1.046-1.252-6.289-8.951-10.2-14.734-2.479-3.66-4.42-6.551-4.42-6.551h-35.17s-.657,5.814-1.275,12S101.7,390.154,101.844,391.683Z" transform="translate(-90.896 -322.087)"/><path class="h" d="M103.18,377.461c18.9,5.83,35.709-2.464,40.866-5.45-2.479-3.66-4.42-6.551-4.42-6.551h-35.17S103.83,371.274,103.18,377.461Z" transform="translate(-91.178 -322.091)"/><path class="f" d="M170.406,411.3s-9.68-6.076-16.468-4.982S144.749,421.366,148,429.2c0,0-6.194,1.838-6.194,4.832,0,1.7,3.541,2.25,8.642,2.123s15.256-.222,15.478-1.505a6.084,6.084,0,0,0-.665-3.05s9.165-1.03,10.963-7.129S171.934,412.32,170.406,411.3Z" transform="translate(-99.209 -330.557)"/><path class="h" d="M161.208,436.109a24.6,24.6,0,0,0,8.151,1.806.052.052,0,0,1,0,.1,13.323,13.323,0,0,1-8.183-1.846C161.144,436.156,161.168,436.085,161.208,436.109Z" transform="translate(-103.231 -336.776)"/><path class="h" d="M146.839,442.958a4.753,4.753,0,0,1,2.107-2.725,7.31,7.31,0,0,1,1.79-.9c.729-.245,1.473-.38,2.21-.61.055,0,.1.071,0,.1a11.879,11.879,0,0,0-1.822.84,17.8,17.8,0,0,0-1.719,1.014,10.7,10.7,0,0,0-2.376,2.376C147.005,443.148,146.807,443.092,146.839,442.958Z" transform="translate(-100.253 -337.32)"/><path class="h" d="M147.285,438a.048.048,0,1,1,0,.1,7.8,7.8,0,0,0-4.167,4.135c0,.079-.174.079-.158,0a4.967,4.967,0,0,1,4.325-4.23Z" transform="translate(-99.447 -337.17)"/><path class="h" d="M144.61,430.854v.04a20.287,20.287,0,0,1,3.81-1.751,7.146,7.146,0,0,0,.507.792c0,.055.119,0,.087-.048a17.665,17.665,0,0,1-1.7-7.826,38.767,38.767,0,0,1,.254-4.285h0a21,21,0,0,1,2.3-7.129,8.587,8.587,0,0,1,2.986-3.438,8.285,8.285,0,0,1,4.476-.792,20.6,20.6,0,0,1,4.673.863,36.23,36.23,0,0,1,4.531,1.584,25.1,25.1,0,0,0-9.157-3.065,8.381,8.381,0,0,0-4.879.792,9.324,9.324,0,0,0-3.327,3.675,22.124,22.124,0,0,0-2.432,9.41V420.8h0v1.489a14.8,14.8,0,0,0,1.671,6.757A7.193,7.193,0,0,0,144.61,430.854Z" transform="translate(-99.791 -330.46)"/><path class="f" d="M137.163,399.851c.792,1.671-2.25,13.7-3.168,16.175s-4.3,16.262-5.885,16.864-9.45.428-10.559,0,0-2.78,1.275-3.6,2.8-2.083,2.8-2.083-2.281-21.3-1.861-23.684S135.1,395.336,137.163,399.851Z" transform="translate(-94.071 -328.893)"/><path class="h" d="M135.267,427.447c.721-2.17,1.663-4.277,2.376-6.44,0-.087.166-.048.135.04-.554,1.743-.974,3.533-1.5,5.291.079-.119.151-.246.222-.364a8.61,8.61,0,0,0,1.244-2.194.074.074,0,1,1,.143.04,5.085,5.085,0,0,1-.467,1.061c-.206.388-.42.792-.634,1.164s-.562,1-.871,1.481v.1a62.258,62.258,0,0,1-2.376,6.44.1.1,0,0,1-.19-.055,67.925,67.925,0,0,1,1.917-6.567Z" transform="translate(-97.45 -333.628)"/><path class="h" d="M120.04,409.191c0-.04.087-.055.1,0,.23,1.584.325,3.248.491,4.872s.372,3.366.554,5.054c.372,3.351.935,6.693,1.2,10.052,0,.143-.246.158-.285,0a61.707,61.707,0,0,1-1.624-9.838c-.174-1.648-.277-3.3-.356-4.943a46.787,46.787,0,0,1-.079-5.2Z" transform="translate(-94.675 -331.174)"/><path class="h" d="M121.246,439.917a2.955,2.955,0,0,1,.507-1.18,4.277,4.277,0,0,1,.9-.911,2.811,2.811,0,0,1,1.125-.547.055.055,0,0,1,.048.1c-.143.135-.3.238-.436.372l-.412.42a5.469,5.469,0,0,0-.673.919c-.19.325-.38.657-.547,1.006s-.269.721-.4,1.085a.079.079,0,0,1-.15,0A2.788,2.788,0,0,1,121.246,439.917Z" transform="translate(-94.914 -337.021)"/><path class="h" d="M118.3,438.561a3.96,3.96,0,0,1,1.917-1.671c.048,0,.1.04.055.079a6.274,6.274,0,0,0-1.513,1.719,2.828,2.828,0,0,0-.3,2.258s0,.048-.055,0A2.313,2.313,0,0,1,118.3,438.561Z" transform="translate(-94.262 -336.94)"/><path class="f" d="M114.764,321.879c.38-1.394-3.089-6.337-4.412-7.961s-8.6-4.135-10.931-2.86c-.911.5-2.606,4-4.9,7.034-3.549,4.705-7.684,9.64-6.179,10.963,3.644,3.224,11.969-1.862,14.67-3.565s5.165-3.786,5.822-3.715c.871.1,2.693,1.473,3.43,1.584a2.558,2.558,0,0,0,2.5-1.481Z" transform="translate(-88.029 -310.709)"/><path class="h" d="M114.764,321.879c.38-1.394-3.089-6.337-4.412-7.961s-8.6-4.135-10.931-2.86c-.911.5-2.606,4-4.9,7.034-3.549,4.705-7.684,9.64-6.179,10.963,3.644,3.224,11.969-1.862,14.67-3.565s5.165-3.786,5.822-3.715c.871.1,2.693,1.473,3.43,1.584a2.558,2.558,0,0,0,2.5-1.481Z" transform="translate(-88.029 -310.709)"/><path class="f" d="M132.495,317.911c8.5,5.085,12.27,18.6,12.5,20.762.19,1.758,4.238,8,3.517,14.71-.467,4.309-8.214,10.036-14.52,9.981-1.157,0-10.971,3.549-19.264,2.978s-14.567-6.456-14.813-6.955-7.026-1.465-7.422-8.4c-.673-11.09,10.614-29.91,13.838-32.477C111.678,314.276,126.68,314.458,132.495,317.911Z" transform="translate(-88.951 -311.669)"/><path class="f" d="M137.9,323.515c-.158-1.5,4.254-6.028,5.9-7.525s9.616-2.86,11.818-1.149c.863.673,2.044,4.578,3.913,8.111,2.891,5.474,6.337,11.28,4.594,12.4-4.325,2.741-12.119-3.913-14.638-6.139s-4.753-4.753-5.426-4.816c-.919-.048-3.042,1.077-3.81,1.038A2.7,2.7,0,0,1,137.9,323.515Z" transform="translate(-98.395 -311.403)"/><path class="h" d="M137.9,323.515c-.158-1.5,4.254-6.028,5.9-7.525s9.616-2.86,11.818-1.149c.863.673,2.044,4.578,3.913,8.111,2.891,5.474,6.337,11.28,4.594,12.4-4.325,2.741-12.119-3.913-14.638-6.139s-4.753-4.753-5.426-4.816c-.919-.048-3.042,1.077-3.81,1.038A2.7,2.7,0,0,1,137.9,323.515Z" transform="translate(-98.395 -311.403)"/><path class="h" d="M115.186,349.93c5.212.048,7.589,5.632,8.214,7.082s3.85,4.753,3.961,8.262-6.519,7.367-13.466,6.139-10.614-5.141-10.575-8.674c0-2.844,2.709-5.307,3.01-6.052S110.441,349.882,115.186,349.93Z" transform="translate(-91.207 -318.863)"/><path class="h" d="M134.48,362.31a11.928,11.928,0,0,1,1.751,2.622,11.089,11.089,0,0,1,1.022,3.026,5.465,5.465,0,0,1-.341,3.248,3.825,3.825,0,0,1-1.014,1.307,4.556,4.556,0,0,1-1.418.729,4.491,4.491,0,0,0,1.861-2.273,5.9,5.9,0,0,0,.127-2.883,16.015,16.015,0,0,0-.792-2.907C135.3,364.219,134.892,363.261,134.48,362.31Z" transform="translate(-97.685 -321.436)"/><path class="h" d="M103.443,359.68c-.452.562-.879,1.109-1.275,1.663a10.3,10.3,0,0,0-1.006,1.727,5.546,5.546,0,0,0-.459,1.869,5.83,5.83,0,0,0,.372,1.988,3.493,3.493,0,0,1-.99-1.949,4.365,4.365,0,0,1,.356-2.226A6.575,6.575,0,0,1,103.443,359.68Z" transform="translate(-90.53 -320.889)"/><path class="e" d="M183.7,434.076c-8.531,0-17.949-.151-27.415-.325-4.879-.087-8.713-.158-11.137-.158-12.3,0-15.842-15.842-19.264-31.1-.475-2.131-.951-4.262-1.45-6.337-.982-4.1-1.782-8.222-2.566-12.222-2.376-12.365-4.491-23.035-9.941-23.621-7.2-.792-13.609,10-15.945,26.8L94.4,386.9c2.464-17.712,9.569-29.039,17.68-28.16,6.614.7,8.8,11.882,11.327,24.9.792,3.961,1.584,8.1,2.551,12.151.507,2.1.982,4.246,1.465,6.385,3.438,15.351,6.686,29.855,17.712,29.855,2.416,0,6.282.071,11.169.158,10.709.206,25.348.475,37.784.23,20.136-.4,22.52-1.98,22.766-2.463,0-3.3-21.261-7.256-29.261-8.753s-8.4-1.584-8.309-2.559,1.069-.9,2.574-.9H215.08c10.416,0,13.775-14.987,15.787-23.946a33.537,33.537,0,0,1,1.529-5.648c2.329-4.848,8.222-4.143,8.468-4.111l-.206,1.584c-.206,0-5.006-.586-6.836,3.224a34.851,34.851,0,0,0-1.41,5.307c-2.115,9.418-5.64,25.182-17.332,25.182H186.246l1.656.309c19.344,3.612,30.544,6.472,30.544,10.377a1.537,1.537,0,0,1-.515,1.125C215.579,433.434,201.582,434.076,183.7,434.076Z" transform="translate(-89.353 -320.684)"/><rect class="e" width="9.727" height="5.838" transform="translate(1.16 64.683) rotate(3.43)"/><rect class="d" width="6.068" height="1.854" transform="translate(3.089 62.948) rotate(3.43)"/><rect class="f" width="1.149" height="4.452" transform="translate(2.884 70.641) rotate(3.43)"/><rect class="f" width="1.141" height="4.452" transform="translate(7.28 70.896) rotate(3.43)"/><rect class="e" width="9.727" height="4.254" transform="translate(154.481 68.994) rotate(-90)"/><rect class="d" width="6.068" height="3.438" transform="translate(151.051 67.164) rotate(-90)"/><path class="f" d="M110,359.627s2.067,2.376,2.867,1.885,2.8-5.212,2.8-5.212.483,5.988,2.028,6.155,4.19-2.2,4.19-2.2l-6.25-4.333Z" transform="translate(-92.596 -320.108)"/><path class="h" d="M110,359.627s2.067,2.376,2.867,1.885,2.8-5.212,2.8-5.212.483,5.988,2.028,6.155,4.19-2.2,4.19-2.2l-6.25-4.333Z" transform="translate(-92.596 -320.108)"/><path class="h" d="M145.087,347.643a14.861,14.861,0,0,0,.634-5.973,10.584,10.584,0,0,0-.721-3.034,7.431,7.431,0,0,0-.792-1.418,6.941,6.941,0,0,0-1.061-1.252,5.7,5.7,0,0,0-.642-.515c-.23-.158-.467-.285-.7-.428l-.356-.2-.372-.151a6.783,6.783,0,0,0-.792-.285,8.389,8.389,0,0,0-3.169-.3,10.892,10.892,0,0,0-5.608,2.21,15.842,15.842,0,0,1,5.648-1.038,8.331,8.331,0,0,1,2.669.475c.214.063.412.182.618.261l.3.135.285.182c.182.119.38.222.562.349a4.751,4.751,0,0,1,.5.412,6.448,6.448,0,0,1,1.537,2.131,11.7,11.7,0,0,1,.863,2.638,28.46,28.46,0,0,1,.594,5.8Z" transform="translate(-97.067 -315.562)"/><path class="h" d="M99.751,343.234a22.607,22.607,0,0,1,.792-4.872,7.288,7.288,0,0,1,2.376-3.771,5.333,5.333,0,0,1,.935-.547,3.691,3.691,0,0,1,1.006-.277,8.573,8.573,0,0,1,2.289.048,31.752,31.752,0,0,1,4.8,1.244,12.134,12.134,0,0,0-2.131-1.442c-.38-.2-.792-.38-1.172-.555a12.764,12.764,0,0,0-1.244-.428,7.3,7.3,0,0,0-2.709-.3,4.421,4.421,0,0,0-1.426.349,5.973,5.973,0,0,0-1.236.713,6.281,6.281,0,0,0-1.79,2.147,8.42,8.42,0,0,0-.792,2.559,11.779,11.779,0,0,0,.3,5.133Z" transform="translate(-90.371 -315.2)"/><path class="d" d="M132.292,348.064c0-.087.206.119.2.222-.19,2.376,0,5.149,2.376,6.044.071,0,.055.151,0,.135C131.959,353.966,131.7,350.3,132.292,348.064Z" transform="translate(-97.176 -318.47)"/><path class="d" d="M134.766,345.05c4.23-.111,4.222,7.612.3,7.715S131.233,345.137,134.766,345.05Z" transform="translate(-97.194 -317.848)"/><path class="d" d="M110.825,345.694c0-.087-.214.1-.222.2-.143,2.376-.792,5.093-3.168,5.656-.071,0-.079.135,0,.135C110.342,351.587,111.111,347.991,110.825,345.694Z" transform="translate(-92.051 -317.977)"/><path class="d" d="M108.1,342.268c-4.167-.7-5.244,6.955-1.378,7.6S111.6,342.839,108.1,342.268Z" transform="translate(-91.417 -317.261)"/><path class="d" d="M116.035,354.909c.792.246,5.973-1.4,5.545-2.986-.436-1.711-7.771-2.115-8.713-1.006S115.251,354.656,116.035,354.909Z" transform="translate(-93.157 -318.939)"/><path class="d" d="M121.974,359.666a17.527,17.527,0,0,1-2.654,1.656,3.534,3.534,0,0,1-1.442.412c-.3.055-.554-.349-.729-.737a11.289,11.289,0,0,1-.657-2.527c-.158-.863-.246-1.751-.341-2.614l-.246-2.376-.721,2.337c-.222.721-.483,1.442-.745,2.163a16.486,16.486,0,0,1-.935,2.091,3.051,3.051,0,0,1-.309.475,1.4,1.4,0,0,1-.364.38.658.658,0,0,1-.436.048,2.493,2.493,0,0,1-.57-.238,8.136,8.136,0,0,1-1.877-1.687A5.956,5.956,0,0,0,111.534,361a2.266,2.266,0,0,0,.689.364,2.15,2.15,0,0,0,.467.063,1.109,1.109,0,0,0,.507-.119,2.156,2.156,0,0,0,.586-.475,4.713,4.713,0,0,0,.4-.515,13.168,13.168,0,0,0,1.133-2.131A16.45,16.45,0,0,0,116.1,356l-.974-.071a23.483,23.483,0,0,0,.364,2.669,13.067,13.067,0,0,0,.333,1.331,6.891,6.891,0,0,0,.531,1.323,2.773,2.773,0,0,0,.467.65,1.355,1.355,0,0,0,.42.293,1.038,1.038,0,0,0,.325.1,1.192,1.192,0,0,0,.293,0,3.873,3.873,0,0,0,1.711-.61,11.02,11.02,0,0,0,2.4-2.012Z" transform="translate(-92.586 -319.601)"/></g><g transform="translate(63.109 277.74)"><path class="e" d="M74.9,395.873a37.353,37.353,0,0,1,9.395.642,37.408,37.408,0,0,1-9.395-.642Z" transform="translate(-71.019 -376.498)"/><path class="e" d="M103.69,402.218a33.791,33.791,0,0,1,4.333,1.853,32.821,32.821,0,0,1,4.064,2.376,37.3,37.3,0,0,1-8.4-4.238Z" transform="translate(-77.003 -377.828)"/><path class="e" d="M81.25,414.025a37.143,37.143,0,0,1,5.656-7.525,36.01,36.01,0,0,1-5.656,7.525Z" transform="translate(-72.339 -378.72)"/><path class="e" d="M70,384.07c1.228.388,2.424.832,3.612,1.291s2.376.951,3.549,1.45,2.376,1.014,3.493,1.584,2.313,1.1,3.438,1.719c-1.228-.4-2.424-.84-3.612-1.3s-2.376-.951-3.549-1.45-2.376-1.014-3.493-1.584S71.133,384.68,70,384.07Z" transform="translate(-70 -374.058)"/><path class="e" d="M105.13,392.365A20.979,20.979,0,0,1,108.568,391a20.306,20.306,0,0,1,3.6-.792,22.526,22.526,0,0,1-7.042,2.162Z" transform="translate(-77.303 -375.334)"/><path class="e" d="M89.045,384.452c-.65-1.03-1.236-2.083-1.814-3.168s-1.133-2.139-1.679-3.224-1.069-2.17-1.584-3.279-.99-2.21-1.418-3.351c.65,1.03,1.244,2.091,1.822,3.169s1.133,2.139,1.679,3.216,1.061,2.17,1.584,3.279S88.618,383.312,89.045,384.452Z" transform="translate(-72.609 -371.43)"/><path class="e" d="M109.092,416.733c-.7-.792-1.362-1.655-2-2.5s-1.259-1.727-1.877-2.6-1.2-1.767-1.758-2.677-1.125-1.822-1.632-2.764c.7.792,1.362,1.656,2,2.5s1.267,1.727,1.877,2.6,1.2,1.766,1.758,2.677S108.585,415.783,109.092,416.733Z" transform="translate(-76.615 -378.656)"/></g><g transform="translate(238.073 73.215)"><path class="j" d="M361.426,157.19H295.95l-5.07-44.47h65.477Z" transform="translate(-290.88 -112.72)"/><path class="k" d="M358.8,154.995H299.778L295.39,116.49h59.021Z" transform="translate(-291.817 -113.504)"/><path class="f" d="M326.736,139.956l-.943,1.125-9.284-8.016.943-1.125Z" transform="translate(-296.208 -116.715)"/><path class="f" d="M324.631,131.94l1.3,1.125-6.741,8.016-1.3-1.125Z" transform="translate(-296.495 -116.715)"/><path class="f" d="M351.8,139.956l-.943,1.125-9.284-8.016.943-1.125Z" transform="translate(-301.417 -116.715)"/><path class="f" d="M349.691,131.94l1.3,1.125-6.741,8.016-1.3-1.125Z" transform="translate(-301.704 -116.715)"/><path class="f" d="M314.943,151.374l-.253-1.584h35.986l.254,1.584Z" transform="translate(-295.83 -120.426)"/><rect class="j" width="84.234" height="2.986" transform="translate(5.529 41.491)"/><rect class="i" width="73.049" height="2.986" transform="translate(23.827 41.491)"/><path class="d" d="M354.625,118.359l-.214-1.869H295.39l.214,1.869Z" transform="translate(-291.817 -113.504)"/><path class="i" d="M301.658,117.547a.5.5,0,0,0,.467.459.38.38,0,0,0,.364-.459.5.5,0,0,0-.467-.467.388.388,0,0,0-.364.467Z" transform="translate(-293.119 -113.626)"/><path class="k" d="M299.5,117.547a.507.507,0,0,0,.475.459.388.388,0,0,0,.364-.459.507.507,0,0,0-.467-.467.4.4,0,0,0-.372.467Z" transform="translate(-292.67 -113.626)"/><path class="f" d="M297.348,117.547a.5.5,0,0,0,.467.459.38.38,0,0,0,.364-.459.5.5,0,0,0-.467-.467.388.388,0,0,0-.364.467Z" transform="translate(-292.223 -113.626)"/></g></g></svg>
