<svg width="24" height="25" viewBox="0 0 24 25" fill="none" xmlns="http://www.w3.org/2000/svg">
<g clip-path="url(#clip0_3002_322)">
<path d="M15 21.1987C14.9015 21.1991 14.8039 21.1798 14.7129 21.142C14.6219 21.1042 14.5393 21.0487 14.47 20.9787L7.94999 14.4617C7.4407 13.9485 7.15491 13.2547 7.15491 12.5317C7.15491 11.8087 7.4407 11.1149 7.94999 10.6017L14.47 4.07971C14.6122 3.94723 14.8002 3.87511 14.9945 3.87853C15.1888 3.88196 15.3742 3.96068 15.5116 4.09809C15.649 4.2355 15.7277 4.42089 15.7312 4.61519C15.7346 4.80949 15.6625 4.99753 15.53 5.13971L9.00999 11.6617C8.77941 11.8925 8.64989 12.2054 8.64989 12.5317C8.64989 12.858 8.77941 13.1709 9.00999 13.4017L15.53 19.9217C15.6695 20.0628 15.7477 20.2533 15.7477 20.4517C15.7477 20.6501 15.6695 20.8406 15.53 20.9817C15.3869 21.1181 15.1977 21.1956 15 21.1987Z" fill="#0B032D"/>
</g>
<defs>
<clipPath id="clip0_3002_322">
<rect width="24" height="24" fill="white" transform="translate(0 0.528809)"/>
</clipPath>
</defs>
</svg>
