<svg width="44" height="44" viewBox="0 0 44 44" fill="none" xmlns="http://www.w3.org/2000/svg">
<path d="M20.625 33.4583H16.5C14.4833 33.4583 12.8333 35.1083 12.8333 37.125V37.5833H11C10.2483 37.5833 9.625 38.2067 9.625 38.9583C9.625 39.71 10.2483 40.3333 11 40.3333H33C33.7517 40.3333 34.375 39.71 34.375 38.9583C34.375 38.2067 33.7517 37.5833 33 37.5833H31.1667V37.125C31.1667 35.1083 29.5167 33.4583 27.5 33.4583H23.375V29.26C22.9167 29.315 22.4583 29.3333 22 29.3333C21.5417 29.3333 21.0833 29.315 20.625 29.26V33.4583Z" fill="white"/>
<path d="M33.8802 21.3401C35.0902 20.8817 36.1535 20.1301 36.9968 19.2867C38.7018 17.3984 39.8202 15.1434 39.8202 12.5034C39.8202 9.86342 37.7485 7.79175 35.1085 7.79175H34.0818C32.8902 5.35341 30.3968 3.66675 27.5002 3.66675H16.5002C13.6035 3.66675 11.1102 5.35341 9.91851 7.79175H8.89184C6.25184 7.79175 4.18018 9.86342 4.18018 12.5034C4.18018 15.1434 5.29851 17.3984 7.00351 19.2867C7.84684 20.1301 8.91018 20.8817 10.1202 21.3401C12.0268 26.0334 16.6102 29.3334 22.0002 29.3334C27.3902 29.3334 31.9735 26.0334 33.8802 21.3401ZM27.2068 15.4917L26.0702 16.8851C25.8868 17.0867 25.7585 17.4901 25.7768 17.7651L25.8868 19.5617C25.9602 20.6617 25.1718 21.2301 24.1452 20.8267L22.4768 20.1667C22.2202 20.0751 21.7802 20.0751 21.5235 20.1667L19.8552 20.8267C18.8285 21.2301 18.0402 20.6617 18.1135 19.5617L18.2235 17.7651C18.2418 17.4901 18.1135 17.0867 17.9302 16.8851L16.7935 15.4917C16.0785 14.6484 16.3902 13.7134 17.4535 13.4384L19.1952 12.9984C19.4702 12.9251 19.8002 12.6684 19.9468 12.4301L20.9185 10.9267C21.5235 9.99175 22.4768 9.99175 23.0818 10.9267L24.0535 12.4301C24.2002 12.6684 24.5302 12.9251 24.8052 12.9984L26.5468 13.4384C27.6102 13.7134 27.9218 14.6484 27.2068 15.4917Z" fill="white"/>
</svg>
