<svg width="32" height="32" viewBox="0 0 32 32" fill="none" xmlns="http://www.w3.org/2000/svg">
<g clip-path="url(#clip0_5005_11065)">
<path d="M21.5733 29.3334H10.4133C5.56262 29.3334 2.66797 26.432 2.66797 21.5734V10.4134C2.66797 5.56271 5.56396 2.66671 10.4133 2.66671H21.5866C22.6251 2.61359 23.6637 2.76803 24.6417 3.12106C25.6197 3.47408 26.5175 4.01858 27.2826 4.7227C27.9837 5.48809 28.5251 6.38564 28.8751 7.36276C29.2252 8.33987 29.3768 9.37694 29.3213 10.4134V21.5867C29.32 26.4374 26.424 29.3334 21.5733 29.3334ZM10.6666 20.4987C10.4023 20.5022 10.1497 20.6088 9.96287 20.7959C9.77604 20.9829 9.66973 21.2357 9.66663 21.5C9.67008 21.7642 9.77655 22.0165 9.96334 22.2033C10.1501 22.3901 10.4025 22.4966 10.6666 22.5H21.3333C21.5984 22.4997 21.8526 22.3942 22.04 22.2067C22.2275 22.0193 22.3329 21.7652 22.3333 21.5C22.3333 21.2347 22.228 20.9802 22.0405 20.7924C21.853 20.6047 21.5986 20.4991 21.3333 20.4987H10.6666ZM11.3333 9.83875C10.6705 9.83768 10.0343 10.0996 9.56435 10.567C9.09441 11.0345 8.82909 11.6693 8.82662 12.3321C8.82556 12.9984 9.0889 13.638 9.55884 14.1104C10.0288 14.5828 10.6669 14.8495 11.3333 14.852C11.9979 14.8513 12.6351 14.587 13.105 14.1171C13.5749 13.6471 13.8393 13.0099 13.84 12.3453C13.8389 11.681 13.5744 11.0442 13.1045 10.5745C12.6346 10.1049 11.9977 9.83945 11.3333 9.83875ZM20.6666 9.81206C20.002 9.81276 19.3649 10.0771 18.8949 10.547C18.425 11.0169 18.1607 11.6541 18.16 12.3187C18.1607 12.9833 18.425 13.6204 18.8949 14.0904C19.3649 14.5603 20.002 14.8247 20.6666 14.8254C21.331 14.8243 21.9678 14.5599 22.4375 14.09C22.9071 13.6201 23.1713 12.9831 23.172 12.3187C23.1709 11.6546 22.9066 11.0179 22.437 10.5483C21.9674 10.0787 21.3308 9.81311 20.6666 9.81206Z" fill="#FCA018"/>
</g>
<defs>
<clipPath id="clip0_5005_11065">
<rect width="32" height="32" fill="white"/>
</clipPath>
</defs>
</svg>
