<svg width="32" height="32" viewBox="0 0 32 32" fill="none" xmlns="http://www.w3.org/2000/svg">
<path d="M21.5865 2.66675H10.4132C5.55984 2.66675 2.6665 5.56008 2.6665 10.4134V21.5734C2.6665 26.4401 5.55984 29.3334 10.4132 29.3334H21.5732C26.4265 29.3334 29.3198 26.4401 29.3198 21.5868V10.4134C29.3332 5.56008 26.4398 2.66675 21.5865 2.66675ZM11.3332 8.50675C12.7065 8.50675 13.8398 9.62675 13.8398 11.0134C13.8398 12.4001 12.7198 13.5201 11.3332 13.5201C9.9465 13.5201 8.8265 12.3734 8.8265 11.0001C8.8265 9.62675 9.95984 8.50675 11.3332 8.50675ZM15.9998 25.4401C12.4132 25.4401 9.49317 22.5201 9.49317 18.9334C9.49317 18.0001 10.2532 17.2267 11.1865 17.2267H20.7865C21.7198 17.2267 22.4798 17.9867 22.4798 18.9334C22.5065 22.5201 19.5865 25.4401 15.9998 25.4401ZM20.6665 13.4934C19.2932 13.4934 18.1598 12.3734 18.1598 10.9867C18.1598 9.60008 19.2798 8.48008 20.6665 8.48008C22.0532 8.48008 23.1732 9.60008 23.1732 10.9867C23.1732 12.3734 22.0398 13.4934 20.6665 13.4934Z" fill="#25B577"/>
</svg>
