<svg width="32" height="32" viewBox="0 0 32 32" fill="none" xmlns="http://www.w3.org/2000/svg">
<path d="M21.587 2.66675H10.4137C5.56033 2.66675 2.66699 5.56008 2.66699 10.4134V21.5734C2.66699 26.4401 5.56033 29.3334 10.4137 29.3334H21.5737C26.427 29.3334 29.3203 26.4401 29.3203 21.5868V10.4134C29.3337 5.56008 26.4403 2.66675 21.587 2.66675ZM8.62699 12.3734C8.24033 11.9867 8.24033 11.3467 8.62699 10.9601C10.347 9.24008 13.1603 9.24008 14.8937 10.9601C15.2803 11.3467 15.2803 11.9867 14.8937 12.3734C14.6937 12.5734 14.4403 12.6667 14.187 12.6667C13.9337 12.6667 13.6803 12.5734 13.4803 12.3734C12.5337 11.4267 10.987 11.4267 10.0403 12.3734C9.65366 12.7734 9.01366 12.7734 8.62699 12.3734ZM20.8003 24.1067H11.2003C10.267 24.1067 9.50699 23.3467 9.50699 22.4001C9.50699 18.8134 12.427 15.8934 16.0137 15.8934C19.6003 15.8934 22.5203 18.8134 22.5203 22.4001C22.507 23.3334 21.7337 24.1067 20.8003 24.1067ZM23.3737 12.3734C22.987 12.7601 22.347 12.7601 21.9603 12.3734C21.0137 11.4267 19.467 11.4267 18.5203 12.3734C18.3203 12.5734 18.067 12.6667 17.8137 12.6667C17.5603 12.6667 17.307 12.5734 17.107 12.3734C16.7203 11.9867 16.7203 11.3467 17.107 10.9601C18.827 9.24008 21.6403 9.24008 23.3737 10.9601C23.7603 11.3601 23.7603 11.9867 23.3737 12.3734Z" fill="#F34158"/>
</svg>
