<svg width="21" height="21" viewBox="0 0 21 21" fill="none" xmlns="http://www.w3.org/2000/svg">
<path d="M10.0833 18.6251C5.37496 18.6251 1.54163 14.7917 1.54163 10.0834C1.54163 5.37508 5.37496 1.54175 10.0833 1.54175C14.7916 1.54175 18.625 5.37508 18.625 10.0834C18.625 14.7917 14.7916 18.6251 10.0833 18.6251ZM10.0833 2.79175C6.05829 2.79175 2.79163 6.06675 2.79163 10.0834C2.79163 14.1001 6.05829 17.3751 10.0833 17.3751C14.1083 17.3751 17.375 14.1001 17.375 10.0834C17.375 6.06675 14.1083 2.79175 10.0833 2.79175Z" fill="#0B032D"/>
<path d="M18.8333 19.4583C18.675 19.4583 18.5166 19.4 18.3916 19.275L16.725 17.6083C16.4833 17.3666 16.4833 16.9666 16.725 16.725C16.9666 16.4833 17.3666 16.4833 17.6083 16.725L19.275 18.3916C19.5166 18.6333 19.5166 19.0333 19.275 19.275C19.15 19.4 18.9916 19.4583 18.8333 19.4583Z" fill="#0B032D"/>
</svg>
