<svg width="20" height="20" viewBox="0 0 20 20" fill="none" xmlns="http://www.w3.org/2000/svg">
<path d="M14.9592 3.6238L9.99992 8.58306L5.04066 3.6238C4.65336 3.2365 4.01102 3.2365 3.62372 3.6238C3.23643 4.01109 3.23643 4.65344 3.62372 5.04073L8.58299 9.99999L3.62372 14.9593C3.23643 15.3466 3.23643 15.9889 3.62372 16.3762C4.01102 16.7635 4.65336 16.7635 5.04066 16.3762L9.99992 11.4169L14.9592 16.3762C15.3465 16.7635 15.9888 16.7635 16.3761 16.3762C16.7634 15.9889 16.7634 15.3466 16.3761 14.9593L11.4169 9.99999L16.3761 5.04073C16.7634 4.65344 16.7634 4.01109 16.3761 3.6238C15.9888 3.2365 15.3465 3.2365 14.9592 3.6238Z" fill="#F34158"/>
</svg>
